<?xml version="1.0" encoding="UTF-8" standalone="no"?>
<!DOCTYPE svg PUBLIC "-//W3C//DTD SVG 1.1//EN" "http://www.w3.org/Graphics/SVG/1.1/DTD/svg11.dtd">
<svg width="100%" height="100%" viewBox="0 0 100 100" version="1.1" xmlns="http://www.w3.org/2000/svg" xmlns:xlink="http://www.w3.org/1999/xlink" xml:space="preserve" xmlns:serif="http://www.serif.com/" style="fill-rule:evenodd;clip-rule:evenodd;stroke-linejoin:round;stroke-miterlimit:2;">
    <g id="default">
        <path d="M70.077,57.293c-0.277,1.79 -0.734,3.238 -1.374,4.341c-0.426,0.714 -2.067,1.353 -4.922,1.919c-3.111,0.606 -6.691,0.908 -10.739,0.908c-6.692,0 -12.264,-1.258 -16.717,-3.776c-4.518,-2.558 -6.776,-5.835 -6.776,-9.833c0,-4.079 2.334,-7.471 7,-10.177c4.496,-2.612 9.929,-3.918 16.301,-3.918c4.517,0 8.31,0.344 11.379,1.03c2.727,0.606 4.143,1.172 4.251,1.697c0.233,1.023 0.351,2.685 0.351,4.987c0,0.377 -0.543,0.599 -1.63,0.666c-0.832,0.054 -1.342,-0.107 -1.534,-0.484c-1.13,-2.302 -2.637,-3.897 -4.523,-4.785c-1.886,-0.889 -4.714,-1.334 -8.486,-1.334c-4.731,0 -8.588,0.99 -11.571,2.969c-3.239,2.154 -4.858,5.102 -4.858,8.844c0,3.715 1.704,6.717 5.114,9.006c3.324,2.248 7.575,3.372 12.753,3.372c3.367,0 6.02,-0.458 7.959,-1.374c1.854,-0.874 3.366,-2.308 4.539,-4.3c0.34,-0.579 1.107,-0.788 2.301,-0.626c0.852,0.121 1.246,0.411 1.182,0.868" style="fill:#ebebeb;fill-rule:nonzero;"/>
        <path d="M45.191,50.399c-2.279,0 -2.526,0.298 -2.526,2.774l0,6.045c0,2.626 0.198,3.616 1.04,4.756c0.792,1.09 2.18,1.734 3.666,1.685c0.644,0 0.892,0.148 0.892,0.644c0,0.545 -0.347,0.743 -1.238,0.743c-0.249,0 -0.793,-0.05 -1.735,-0.149c-1.535,-0.148 -4.112,-0.346 -5.103,-0.346c-0.892,0 -2.378,0.099 -5.747,0.445l-0.297,0c-0.446,0 -0.743,-0.346 -0.743,-0.841c0,-0.348 0.148,-0.496 0.594,-0.546c1.388,-0.198 2.577,-1.337 2.923,-2.775c0.149,-0.544 0.149,-0.742 0.198,-3.764l0,-19.273c0,-2.081 -0.198,-2.676 -1.04,-3.517c-0.743,-0.794 -0.99,-0.843 -3.468,-1.388c-0.544,-0.099 -0.693,-0.248 -0.693,-0.594c0,-0.545 0.247,-0.793 0.792,-0.793c0.248,0 0.942,0.049 1.586,0.149c1.139,0.197 3.171,0.297 4.855,0.297c0.446,0 0.446,0 3.567,-0.297c0.396,-0.05 2.576,-0.198 2.725,-0.198c0.496,0 0.793,0.247 0.793,0.643c0,0.397 -0.198,0.595 -0.694,0.694c-2.13,0.347 -2.873,1.337 -2.873,3.617l0,6.242c0,2.279 0,2.329 0.297,2.725c0.297,0.446 0.892,0.595 2.378,0.595l11.296,0c1.932,0 2.13,-0.347 2.13,-3.915l0,-4.26c0,-2.081 -0.198,-2.676 -1.04,-3.517c-0.793,-0.794 -1.09,-0.892 -3.468,-1.339c-0.545,-0.099 -0.694,-0.247 -0.694,-0.643c0,-0.545 0.248,-0.793 0.793,-0.793c0.248,0 0.941,0.049 1.585,0.149c1.239,0.197 3.122,0.297 5.103,0.297c0.248,0 1.536,-0.1 3.32,-0.297c0.892,-0.05 2.279,-0.149 2.675,-0.149c0.594,0 0.842,0.198 0.842,0.644c0,0.396 -0.198,0.594 -0.693,0.693c-2.13,0.347 -2.874,1.288 -2.874,3.568l0,20.808c0,2.626 0.198,3.666 1.041,4.756c0.793,1.14 2.081,1.734 3.666,1.685c0.644,0 0.891,0.148 0.891,0.644c0,0.545 -0.346,0.743 -1.238,0.743c-0.247,0 -0.793,-0.05 -1.734,-0.149c-1.486,-0.148 -4.112,-0.346 -5.103,-0.346c-0.892,0 -2.378,0.099 -5.747,0.445l-0.297,0c-0.446,0 -0.744,-0.346 -0.744,-0.841c0,-0.348 0.149,-0.496 0.595,-0.546c1.387,-0.198 2.576,-1.337 2.923,-2.775c0.149,-0.544 0.149,-0.742 0.198,-3.764l0,-5.302c0,-3.171 -0.149,-3.369 -2.13,-3.369l-11.445,0Z" style="fill:#f3f3f3;fill-rule:nonzero;"/>
        <path d="M56.636,47.971c1.092,0 1.63,-0.111 1.891,-0.852l0.959,0.033c0,0 1.581,0.028 1.581,-1.32c0,-1.347 0.069,-7.96 0.069,-7.96c0,0 -0.206,-3.658 -4.098,-3.232c0,0 -1.876,0.02 -3.429,-0.068c-0.029,-0.076 -0.045,-0.164 -0.045,-0.274c0,-0.546 0.248,-0.793 0.793,-0.793c0.226,0 0.824,0.041 1.416,0.125c0.296,0.449 1.235,1.103 4.236,0.928c4.468,-0.261 3.918,-0.399 3.918,-0.399c0,0 1.334,-0.248 1.458,0.592c0.123,0.838 -1.087,0.838 -1.087,0.838c0,0 -2.117,0.467 -2.406,2.777l-0.027,18.948l0.013,3.987c0,0 0.151,5.142 3.617,4.441c0,0 2.872,-0.019 4.386,0.351c0.014,0.066 0.032,0.126 0.032,0.21c0,0.545 -0.346,0.743 -1.238,0.743c-0.17,0 -0.494,-0.026 -0.978,-0.072c-0.341,-0.375 -1.243,-0.859 -3.633,-1.012c-4.07,-0.262 -5.169,0.193 -5.169,0.193c0,0 -1.472,0.343 -1.472,-0.716c0,-1.058 1.114,-0.77 1.114,-0.77c0,0 2.365,-0.33 2.612,-3.368l-0.041,-10.037c0,0 0.482,-1.912 -1.994,-1.692l-12.443,-0.055c0,0 -1.048,0.215 -1.41,0.882l-0.07,0c-1.454,0 -2.079,0.124 -2.342,0.855l-0.002,-0.001c0,0 -2.35,-0.498 -2.445,1.481l0.041,9.378c0,0 0.412,3.534 2.365,3.616l5.431,0.422c0.007,0.051 0.024,0.092 0.024,0.153c0,0.545 -0.347,0.743 -1.239,0.743c-0.18,0 -0.523,-0.027 -1.054,-0.079c-0.095,-0.229 -0.36,-0.579 -1.114,-0.579c-1.113,0 -2.158,-0.357 -2.351,-0.55c-0.192,-0.192 -4.194,0.068 -4.991,0.343c-0.797,0.276 -1.691,-0.301 -1.691,-0.591c0,-0.288 0.137,-0.714 1.072,-0.907c0.935,-0.192 2.406,-0.894 2.626,-2.901l-0.013,-12.21l-0.014,-12.031c0,0 0.006,-2.348 -2.269,-2.918c0,0 4.098,-0.231 5.679,-0.423c0,0 0.747,-0.191 0.962,0.423c0.216,0.615 -0.426,0.939 -0.88,0.939c0,0 -2.227,0.605 -2.543,2.282l0,9.542c0,0 -0.206,1.183 1.76,1.375l12.498,0c0.002,0 1.008,-0.074 1.583,-0.79l0.352,0Zm-19.933,-13.399c0,0 -1.308,-0.173 -2.563,-0.94c-0.598,-0.084 -1.205,-0.127 -1.433,-0.127c-0.541,0 -0.788,0.245 -0.792,0.782c1.055,0.193 2.919,0.448 4.788,0.285Z" style="fill:#fff;fill-opacity:0.25;fill-rule:nonzero;"/>
    </g>
</svg>
