<?xml version="1.0" encoding="UTF-8"?>
<!DOCTYPE svg PUBLIC "-//W3C//DTD SVG 1.1//EN" "http://www.w3.org/Graphics/SVG/1.1/DTD/svg11.dtd">
<svg width="100%" height="100%" version="1.1" xmlns="http://www.w3.org/2000/svg" xmlns:xlink="http://www.w3.org/1999/xlink" xml:space="preserve">
    <defs>
        <symbol id="hc_logo" width="100%" height="100%" viewBox="0 0 200 200" style="fill-rule:evenodd;clip-rule:evenodd;stroke-linejoin:round;stroke-miterlimit:2;">
            <g>
                <path d="M49.16,183.92l-0.488,0l0,-4.007c0.561,-0.147 1.474,-0.322 2.74,-0.526c1.267,-0.201 2.536,-0.3 3.806,-0.3c3.028,0 5.213,0.462 6.556,1.394c1.346,0.931 2.02,2.396 2.02,4.383l0,11.294l-5.277,0l0,-1.758c-0.287,0.214 -0.641,0.479 -1.066,0.782c-0.424,0.306 -0.823,0.548 -1.196,0.724c-0.523,0.236 -1.062,0.411 -1.627,0.526c-0.562,0.112 -1.177,0.169 -1.847,0.169c-1.576,0 -2.897,-0.488 -3.963,-1.461c-1.062,-0.976 -1.595,-2.223 -1.595,-3.742c0,-1.212 0.272,-2.201 0.814,-2.97c0.542,-0.769 1.308,-1.375 2.303,-1.819c0.989,-0.443 2.208,-0.759 3.666,-0.947c1.461,-0.185 2.973,-0.322 4.54,-0.412l0,-0.089c0,-0.919 -0.374,-1.55 -1.123,-1.901c-0.75,-0.348 -1.854,-0.524 -3.312,-0.524c-0.877,0 -1.815,0.154 -2.807,0.463c-0.996,0.313 -1.71,0.552 -2.144,0.721Zm98.179,0l-0.489,0l0,-4.007c0.562,-0.147 1.474,-0.322 2.744,-0.526c1.267,-0.201 2.533,-0.3 3.806,-0.3c3.024,0 5.213,0.462 6.556,1.394c1.346,0.931 2.016,2.396 2.016,4.383l0,11.294l-5.276,0l0,-1.758c-0.288,0.214 -0.642,0.479 -1.063,0.782c-0.424,0.306 -0.823,0.548 -1.199,0.724c-0.524,0.236 -1.063,0.411 -1.627,0.526c-0.562,0.112 -1.174,0.169 -1.848,0.169c-1.576,0 -2.896,-0.488 -3.962,-1.461c-1.062,-0.976 -1.595,-2.223 -1.595,-3.742c0,-1.212 0.271,-2.201 0.814,-2.97c0.539,-0.769 1.308,-1.375 2.303,-1.819c0.986,-0.443 2.211,-0.759 3.669,-0.947c1.455,-0.185 2.97,-0.322 4.536,-0.412l0,-0.089c0,-0.919 -0.373,-1.55 -1.123,-1.901c-0.746,-0.348 -1.853,-0.524 -3.311,-0.524c-0.877,0 -1.812,0.154 -2.808,0.463c-0.995,0.313 -1.71,0.552 -2.143,0.721Zm-114.808,4.922c0.077,1.302 0.574,2.297 1.484,2.986c0.912,0.686 2.255,1.034 4.029,1.034c1.123,0 2.214,-0.201 3.267,-0.606c1.053,-0.406 1.888,-0.836 2.498,-1.302l0.59,0l0,4.272c-1.2,0.481 -2.335,0.836 -3.398,1.052c-1.065,0.214 -2.242,0.323 -3.534,0.323c-3.331,0 -5.883,-0.747 -7.657,-2.246c-1.774,-1.5 -2.661,-3.631 -2.661,-6.4c0,-2.74 0.839,-4.91 2.52,-6.514c1.682,-1.599 3.985,-2.4 6.911,-2.4c2.702,0 4.731,0.683 6.09,2.045c1.359,1.366 2.042,3.328 2.042,5.893l0,1.863l-12.181,0Zm153.551,0c0.08,1.302 0.574,2.297 1.487,2.986c0.909,0.686 2.252,1.034 4.026,1.034c1.123,0 2.21,-0.201 3.266,-0.606c1.056,-0.406 1.886,-0.836 2.498,-1.302l0.594,0l0,4.272c-1.206,0.481 -2.335,0.836 -3.401,1.052c-1.066,0.214 -2.243,0.323 -3.535,0.323c-3.33,0 -5.883,-0.747 -7.656,-2.246c-1.774,-1.5 -2.661,-3.631 -2.661,-6.4c0,-2.74 0.839,-4.91 2.523,-6.514c1.678,-1.599 3.982,-2.4 6.907,-2.4c2.702,0 4.731,0.683 6.094,2.045c1.359,1.366 2.038,3.328 2.038,5.893l0,1.863l-12.18,0Zm-43.311,-7.954l-0.65,0c-0.275,-0.236 -0.626,-0.514 -1.041,-0.839c-0.421,-0.322 -0.896,-0.641 -1.429,-0.954c-0.539,-0.316 -1.129,-0.581 -1.758,-0.794c-0.628,-0.217 -1.308,-0.323 -2.025,-0.323c-0.798,0 -1.557,0.125 -2.278,0.374c-0.718,0.252 -1.382,0.67 -1.994,1.247c-0.581,0.565 -1.053,1.305 -1.41,2.227c-0.361,0.925 -0.539,2.045 -0.539,3.366c0,1.375 0.194,2.526 0.583,3.452c0.386,0.921 0.878,1.649 1.471,2.182c0.6,0.539 1.27,0.928 2.01,1.158c0.737,0.229 1.467,0.347 2.188,0.347c0.686,0 1.369,-0.105 2.049,-0.309c0.673,-0.207 1.295,-0.488 1.866,-0.839c0.485,-0.284 0.932,-0.587 1.346,-0.909c0.415,-0.329 0.753,-0.603 1.021,-0.842l0.59,0l0,5.263c-0.552,0.246 -1.078,0.479 -1.582,0.696c-0.501,0.214 -1.027,0.402 -1.582,0.561c-0.718,0.208 -1.395,0.364 -2.026,0.473c-0.629,0.108 -1.496,0.162 -2.6,0.162c-1.634,0 -3.146,-0.242 -4.527,-0.724c-1.388,-0.482 -2.578,-1.203 -3.573,-2.16c-0.996,-0.954 -1.765,-2.147 -2.313,-3.576c-0.546,-1.429 -0.82,-3.079 -0.82,-4.951c0,-1.745 0.261,-3.328 0.785,-4.744c0.523,-1.42 1.276,-2.639 2.274,-3.653c0.954,-0.976 2.141,-1.729 3.557,-2.259c1.414,-0.533 2.955,-0.801 4.633,-0.801c0.925,0 1.761,0.051 2.507,0.154c0.74,0.105 1.429,0.242 2.061,0.408c0.657,0.185 1.257,0.395 1.796,0.628c0.533,0.233 1.005,0.447 1.41,0.645l0,5.334Zm-58.093,-1.329l4.968,0l0,3.608l-4.968,0l0,5.889c0,0.584 0.007,1.091 0.016,1.525c0.01,0.437 0.09,0.826 0.236,1.171c0.138,0.344 0.38,0.619 0.728,0.82c0.351,0.204 0.861,0.306 1.528,0.306c0.274,0 0.635,-0.061 1.081,-0.179c0.447,-0.118 0.76,-0.226 0.938,-0.325l0.441,0l0,3.64c-0.571,0.144 -1.178,0.262 -1.819,0.345c-0.641,0.082 -1.423,0.124 -2.348,0.124c-2.07,0 -3.611,-0.418 -4.619,-1.257c-1.012,-0.836 -1.516,-2.268 -1.516,-4.3l0,-7.759l-2.188,0l0,-3.608l2.188,0l0,-4.748l5.334,0l0,4.748Zm-10.656,16.601l-5.338,0l0,-22.999l5.338,0l0,22.999Zm-65.038,-0.001l-5.678,0l0,-22.01l5.678,0l0,8.056l8.381,0l0,-8.056l5.676,0l0,22.01l-5.676,0l0,-9.699l-8.381,0l0,9.699Zm89.175,0l-5.334,0l0,-22.999l5.334,0l0,8.231c0.948,-0.737 1.854,-1.308 2.725,-1.7c0.871,-0.393 1.837,-0.591 2.9,-0.591c1.793,0 3.19,0.524 4.201,1.567c1.008,1.043 1.512,2.606 1.512,4.686l0,10.806l-5.334,0l0,-8.234c0,-0.673 -0.035,-1.34 -0.105,-2.004c-0.07,-0.667 -0.188,-1.155 -0.354,-1.47c-0.198,-0.364 -0.485,-0.629 -0.865,-0.798c-0.379,-0.169 -0.909,-0.252 -1.588,-0.252c-0.485,0 -0.973,0.08 -1.471,0.236c-0.501,0.16 -1.04,0.408 -1.621,0.756l0,11.766Zm74.041,-0.001l-5.334,0l0,-16.599l5.334,0l0,2.437c1.171,-1.005 2.189,-1.671 3.053,-2.003c0.865,-0.329 1.663,-0.495 2.39,-0.495c0.188,0 0.399,0.007 0.635,0.016c0.236,0.01 0.443,0.023 0.619,0.045l0,5.069l-0.472,0c-0.224,-0.08 -0.591,-0.137 -1.092,-0.178c-0.5,-0.036 -0.918,-0.058 -1.253,-0.058c-0.756,0 -1.426,0.051 -2.004,0.147c-0.584,0.099 -1.206,0.268 -1.876,0.504l0,11.115Zm-113.683,-4.342l0,-3.449c-0.721,0.061 -1.5,0.141 -2.335,0.243c-0.839,0.105 -1.474,0.226 -1.908,0.36c-0.533,0.169 -0.938,0.412 -1.219,0.731c-0.281,0.322 -0.421,0.74 -0.421,1.26c0,0.344 0.029,0.625 0.089,0.839c0.058,0.217 0.208,0.424 0.444,0.622c0.226,0.195 0.497,0.338 0.81,0.434c0.316,0.092 0.81,0.14 1.48,0.14c0.533,0 1.069,-0.108 1.618,-0.325c0.545,-0.217 1.027,-0.501 1.442,-0.855Zm98.179,0l0,-3.449c-0.718,0.061 -1.5,0.141 -2.336,0.243c-0.839,0.105 -1.474,0.226 -1.907,0.36c-0.533,0.169 -0.938,0.412 -1.216,0.731c-0.284,0.322 -0.424,0.74 -0.424,1.26c0,0.344 0.028,0.625 0.089,0.839c0.057,0.217 0.207,0.424 0.444,0.622c0.226,0.195 0.497,0.338 0.813,0.434c0.316,0.092 0.807,0.14 1.477,0.14c0.533,0 1.072,-0.108 1.621,-0.325c0.545,-0.217 1.024,-0.501 1.439,-0.855Zm-117.277,-6.094c-0.029,-1.114 -0.306,-1.949 -0.83,-2.514c-0.52,-0.558 -1.333,-0.842 -2.437,-0.842c-1.024,0 -1.866,0.268 -2.527,0.8c-0.66,0.53 -1.03,1.382 -1.11,2.556l6.904,0Zm153.551,0c-0.029,-1.114 -0.303,-1.949 -0.827,-2.514c-0.523,-0.558 -1.336,-0.842 -2.44,-0.842c-1.027,0 -1.87,0.268 -2.527,0.8c-0.66,0.53 -1.03,1.382 -1.11,2.556l6.904,0Z" style="fill:#7f6821;fill-rule:nonzero;"/>
                <rect x="0.499" y="195.458" width="199.003" height="4.042" style="fill:#7f6821;"/>
                <rect x="0.499" y="170.752" width="199.003" height="4.042" style="fill:#7f6821;"/>
            </g>
            <path d="M188.854,117.165c-1.267,8.193 -3.363,14.816 -6.288,19.866c-1.953,3.264 -9.459,6.189 -22.523,8.78c-14.239,2.772 -30.618,4.153 -49.147,4.153c-30.617,0 -56.113,-5.758 -76.493,-17.275c-20.673,-11.705 -31.006,-26.703 -31.006,-44.999c0,-18.666 10.678,-34.187 32.03,-46.568c20.571,-11.951 45.436,-17.93 74.595,-17.93c20.67,0 38.025,1.573 52.069,4.713c12.477,2.775 18.963,5.362 19.451,7.765c1.072,4.68 1.608,12.289 1.608,22.82c0,1.726 -2.486,2.743 -7.456,3.05c-3.806,0.248 -6.144,-0.492 -7.022,-2.218c-5.171,-10.531 -12.069,-17.833 -20.698,-21.898c-8.63,-4.067 -21.573,-6.1 -38.829,-6.1c-21.649,0 -39.298,4.531 -52.949,13.585c-14.822,9.854 -22.23,23.346 -22.23,40.471c0,17.001 7.8,30.739 23.401,41.209c15.211,10.289 34.662,15.432 58.356,15.432c15.406,0 27.548,-2.096 36.42,-6.285c8.483,-4.004 15.406,-10.563 20.769,-19.681c1.56,-2.648 5.069,-3.602 10.531,-2.865c3.899,0.555 5.704,1.882 5.411,3.975" style="fill:#7f6821;fill-rule:nonzero;"/>
            <g>
                <path d="M74.976,85.618c-10.429,0 -11.565,1.362 -11.565,12.697l0,27.657c0,12.017 0.91,16.551 4.763,21.767c3.628,4.986 9.976,7.931 16.778,7.707c2.945,0 4.08,0.68 4.08,2.948c0,2.492 -1.585,3.398 -5.669,3.398c-1.132,0 -3.627,-0.223 -7.934,-0.68c-7.028,-0.679 -18.816,-1.585 -23.353,-1.585c-4.08,0 -10.882,0.456 -26.297,2.042l-1.359,0c-2.042,0 -3.401,-1.586 -3.401,-3.854c0,-1.589 0.68,-2.269 2.718,-2.495c6.349,-0.906 11.791,-6.122 13.377,-12.697c0.683,-2.495 0.683,-3.401 0.909,-17.228l0,-88.195c0,-9.52 -0.909,-12.241 -4.763,-16.095c-3.401,-3.627 -4.533,-3.854 -15.868,-6.348c-2.495,-0.453 -3.175,-1.133 -3.175,-2.719c0,-2.494 1.133,-3.627 3.628,-3.627c1.132,0 4.307,0.223 7.254,0.68c5.213,0.906 14.51,1.359 22.217,1.359c2.042,0 2.042,0 16.322,-1.359c1.815,-0.227 11.791,-0.91 12.471,-0.91c2.268,0 3.627,1.136 3.627,2.948c0,1.816 -0.906,2.722 -3.171,3.175c-9.75,1.588 -13.154,6.122 -13.154,16.551l0,28.565c0,10.429 0,10.656 1.363,12.471c1.359,2.039 4.08,2.718 10.882,2.718l51.692,0c8.84,0 9.746,-1.585 9.746,-17.91l0,-19.499c0,-9.52 -0.906,-12.241 -4.76,-16.095c-3.627,-3.627 -4.986,-4.08 -15.872,-6.119c-2.491,-0.453 -3.174,-1.135 -3.174,-2.948c0,-2.494 1.136,-3.627 3.627,-3.627c1.136,0 4.311,0.223 7.255,0.68c5.669,0.906 14.286,1.359 23.353,1.359c1.132,0 7.028,-0.453 15.189,-1.359c4.083,-0.227 10.432,-0.68 12.244,-0.68c2.718,0 3.854,0.906 3.854,2.945c0,1.815 -0.906,2.721 -3.174,3.177c-9.747,1.586 -13.151,5.893 -13.151,16.322l0,95.217c0,12.017 0.906,16.777 4.763,21.767c3.628,5.213 9.523,7.931 16.778,7.707c2.945,0 4.077,0.68 4.077,2.948c0,2.492 -1.585,3.398 -5.666,3.398c-1.132,0 -3.627,-0.223 -7.934,-0.68c-6.805,-0.679 -18.816,-1.585 -23.353,-1.585c-4.077,0 -10.882,0.456 -26.297,2.042l-1.359,0c-2.042,0 -3.401,-1.586 -3.401,-3.854c0,-1.589 0.679,-2.269 2.718,-2.495c6.349,-0.906 11.791,-6.122 13.377,-12.697c0.679,-2.495 0.679,-3.401 0.906,-17.228l0,-24.259c0,-14.509 -0.68,-15.418 -9.746,-15.418l-52.372,0Z" style="fill:#c39f33;fill-rule:nonzero;"/>
                <path d="M36.132,13.19c0,0 -5.985,-0.791 -11.724,-4.3c-2.737,-0.386 -5.519,-0.581 -6.563,-0.581c-2.475,0 -3.605,1.123 -3.621,3.579c4.827,0.881 13.355,2.049 21.908,1.302" style="fill:#9a7d28;fill-rule:nonzero;"/>
                <path d="M188.105,158.393c0,-0.383 -0.083,-0.661 -0.15,-0.957c-6.923,-1.694 -20.07,-1.611 -20.07,-1.611c-15.859,3.209 -16.548,-20.322 -16.548,-20.322l-0.064,-18.246l0.125,-86.702c1.323,-10.569 11.012,-12.71 11.012,-12.71c0,0 5.535,0 4.968,-3.838c-0.565,-3.834 -6.668,-2.702 -6.668,-2.702c0,0 2.517,0.629 -17.933,1.822c-13.731,0.804 -18.025,-2.192 -19.377,-4.246c-2.712,-0.38 -5.449,-0.571 -6.483,-0.571c-2.495,0 -3.627,1.132 -3.627,3.627c0,0.504 0.073,0.906 0.201,1.257c7.111,0.399 15.696,0.309 15.696,0.309c17.808,-1.949 18.752,14.787 18.752,14.787c0,0 -0.316,30.266 -0.316,36.43c0,6.167 -7.235,6.042 -7.235,6.042l-4.387,-0.153c-1.196,3.388 -3.656,3.902 -8.655,3.902l-1.611,0c-2.632,3.273 -7.242,3.611 -7.242,3.611l-57.195,0c-8.997,-0.88 -8.052,-6.291 -8.052,-6.291l0,-43.665c1.448,-7.676 11.638,-10.445 11.638,-10.445c2.077,0 5.015,-1.477 4.029,-4.291c-0.986,-2.817 -4.406,-1.937 -4.406,-1.937c-7.235,0.878 -25.984,1.937 -25.984,1.937c10.409,2.606 10.381,13.351 10.381,13.351l0.063,55.052l0.064,55.874c-1.008,9.185 -7.739,12.394 -12.017,13.275c-4.279,0.88 -4.907,2.829 -4.907,4.153c0,1.321 4.087,3.963 7.736,2.706c3.65,-1.26 21.959,-2.454 22.843,-1.576c0.877,0.884 5.659,2.52 10.757,2.52c3.449,0 4.658,1.602 5.095,2.645c2.434,0.239 4.004,0.364 4.827,0.364c4.08,0 5.666,-0.907 5.666,-3.401c0,-0.281 -0.073,-0.466 -0.109,-0.702l-24.855,-1.927c-8.933,-0.377 -10.821,-16.548 -10.821,-16.548l-0.189,-42.909c0.441,-9.061 11.192,-6.78 11.192,-6.78l0.006,0.004c1.206,-3.347 4.068,-3.915 10.723,-3.915l0.319,0c1.656,-3.05 6.45,-4.032 6.45,-4.032l56.94,0.249c11.329,-1.005 9.125,7.739 9.125,7.739l0.188,45.931c-1.133,13.906 -11.954,15.415 -11.954,15.415c0,0 -5.098,-1.321 -5.098,3.525c0,4.843 6.735,3.27 6.735,3.27c0,0 5.031,-2.077 23.655,-0.88c10.933,0.702 15.062,2.916 16.622,4.629c2.217,0.217 3.697,0.332 4.479,0.332c4.077,0 5.666,-0.907 5.666,-3.401" style="fill:#9a7d28;fill-rule:nonzero;"/>
            </g>
        </symbol>

        <!-- viewBox="0 0 100 100" -->
        <symbol id="previous" width="100%" height="100%" style="fill-rule:evenodd;clip-rule:evenodd;stroke-linecap:round;stroke-linejoin:round;stroke-miterlimit:1.5;">
            <path d="M64.66,12.501l-37.516,37.499l37.516,37.499" style="fill:none;"/>
        </symbol>
        <symbol id="next" width="100%" height="100%" style="fill-rule:evenodd;clip-rule:evenodd;stroke-linecap:round;stroke-linejoin:round;stroke-miterlimit:1.5;">
            <path d="M35.34,12.501l37.516,37.499l-37.516,37.499" style="fill:none;"/>
        </symbol>
        <symbol id="close" width="100%" height="100%" style="fill-rule:evenodd;clip-rule:evenodd;stroke-linecap:round;stroke-linejoin:round;stroke-miterlimit:1.5;">
            <path d="M15.023,15.023l69.954,69.954" style="fill:none;"/>
            <path d="M84.977,15.023l-69.954,69.954" style="fill:none;"/>
        </symbol>
        <symbol id="star" width="100%" height="100%" style="fill-rule:evenodd;clip-rule:evenodd;stroke-linejoin:round;stroke-miterlimit:10;">
            <path d="M54.037,11.331l6.513,20.043c0.569,1.749 2.199,2.933 4.037,2.933l21.075,0c4.113,0 5.82,5.26 2.496,7.68l-17.05,12.388c-1.486,1.083 -2.114,2.998 -1.541,4.747l6.508,20.043c1.274,3.91 -3.201,7.162 -6.533,4.746l-17.046,-12.388c-1.49,-1.079 -3.502,-1.079 -4.992,0l-17.05,12.388c-3.324,2.416 -7.803,-0.836 -6.534,-4.746l6.513,-20.043c0.568,-1.749 -0.051,-3.664 -1.542,-4.747l-17.045,-12.388c-3.333,-2.42 -1.617,-7.68 2.492,-7.68l21.075,0c1.838,0 3.472,-1.184 4.037,-2.933l6.512,-20.043c1.27,-3.91 6.806,-3.91 8.075,0Z" style="fill:none;fill-rule:nonzero;"/>
        </symbol>
        <symbol id="tel" width="100%" height="100%" style="fill-rule:evenodd;clip-rule:evenodd;stroke-linecap:round;stroke-linejoin:round;stroke-miterlimit:10;">
            <path d="M60.007,69.165l6.975,-6.975c2.013,-2.016 5.285,-2.016 7.298,0l10.51,10.506c1.613,1.614 1.613,4.229 0,5.843l-1.735,1.734c-10.977,10.977 -34.053,5.699 -51.541,-11.789c-17.487,-17.488 -22.766,-40.564 -11.786,-51.544l1.731,-1.731c1.614,-1.611 4.226,-1.611 5.84,0l10.509,10.509c2.017,2.016 2.017,5.282 0,7.298l-6.975,6.972c0,0 8.314,18.544 29.174,29.177Z" style="fill:none;"/>
            <path d="M49.146,29.892c0,0 19.824,-0.541 22.25,22.25" style="fill:none;"/>
            <path d="M49.956,16.954c0,0 30.625,-0.833 34.376,34.377" style="fill:none;"/>
        </symbol>
        <symbol id="fax" width="100%" height="100%" style="fill-rule:evenodd;clip-rule:evenodd;stroke-linejoin:round;stroke-miterlimit:10;">
            <path d="M72.597,75.45l9.405,0c4.153,0 7.524,-3.371 7.524,-7.524l0,-26.333c0,-4.154 -3.371,-7.524 -7.524,-7.524l-63.952,0c-4.153,0 -7.524,3.37 -7.524,7.524l0,26.333c0,4.153 3.371,7.524 7.524,7.524l9.405,0" style="fill:none;fill-rule:nonzero;"/>
        <path d="M27.455,75.45l0,-20.691l45.142,0l0,20.691" style="fill:none;fill-rule:nonzero;"/>
        <path d="M27.455,75.45l0,13.166l45.142,0l0,-13.166" style="fill:none;fill-rule:nonzero;"/>
        <rect x="27.454" y="11.384" width="45.143" height="22.684" style="fill:none;"/>
        <path d="M35.919,66.585l28.214,0" style="fill:none;fill-rule:nonzero;stroke-linecap:round;"/>
        <path d="M35.919,76.795l28.214,0" style="fill:none;fill-rule:nonzero;stroke-linecap:round;"/>
        <path d="M28.461,44.414c0,-1.557 -1.264,-2.821 -2.821,-2.821c-1.557,0 -2.822,1.264 -2.822,2.821c0,1.557 1.265,2.821 2.822,2.821c1.557,0 2.821,-1.264 2.821,-2.821Z" style="stroke-width: 0;"/>
        <path d="M38.366,44.414c0,-1.557 -1.265,-2.821 -2.822,-2.821c-1.557,0 -2.821,1.264 -2.821,2.821c0,1.557 1.264,2.821 2.821,2.821c1.557,0 2.822,-1.264 2.822,-2.821Z" style="stroke-width: 0;"/>
        </symbol>

        <symbol id="news" width="100%" height="100%" viewBox="0 0 100 100" style="fill-rule:evenodd;clip-rule:evenodd;stroke-miterlimit:2;">
            <path d="M88.295,15.195l-76.593,0c-1.85,0 -3.351,1.501 -3.351,3.354l0,67.795l64.98,0l18.319,-14.008l0,-18.379l0,-22.507l0,-12.901c0,-1.853 -1.501,-3.354 -3.355,-3.354Z" style="fill:none;fill-rule:nonzero;"/>
            <path d="M73.329,86.342l0,-14.008l18.319,0" style="fill:none;fill-rule:nonzero;stroke-linecap:round;stroke-linejoin:round;"/>
            <path d="M8.35,31.448l66.346,0" style="fill:none;fill-rule:nonzero;"/>
            <path d="M83.44,31.448l8.21,0" style="fill:none;fill-rule:nonzero;"/>
            <path d="M39.551,8.355l0,12.664" style="fill:none;fill-rule:nonzero;"/>
            <path d="M60.449,8.355l0,12.664" style="fill:none;fill-rule:nonzero;"/>
            <path d="M18.653,8.355l0,12.664" style="fill:none;fill-rule:nonzero;"/>
            <path d="M81.347,8.355l0,12.664" style="fill:none;fill-rule:nonzero;"/>
            <path d="M15.986,43.681l0,16.653l0.56,0l0,-16.14l0.046,0l11.336,16.14l0.839,0l0,-16.653l-0.559,0l0,16.07l-0.047,0l-11.312,-16.07l-0.863,0Z" style="fill:none;fill-rule:nonzero;stroke-miterlimit:2;"/>
            <path d="M33.665,43.681l0,16.653l11.849,0l0,-0.559l-11.289,0l0,-7.837l10.356,0l0,-0.56l-10.356,0l0,-7.137l10.893,0l0,-0.56l-11.453,0Z" style="fill:none;fill-rule:nonzero;stroke-miterlimit:2;"/>
            <path d="M48.08,43.681l4.781,16.653l0.84,0l4.641,-16.07l0.07,0l4.642,16.07l0.839,0l4.782,-16.653l-0.63,0l-4.548,16.117l-0.07,0l-4.618,-16.117l-0.863,0l-4.618,16.117l-0.07,0l-4.549,-16.117l-0.629,0Z" style="fill:none;fill-rule:nonzero;stroke-miterlimit:2;"/>
            <path d="M77.095,43.355c-1.633,0 -2.939,0.326 -3.965,0.979c-1.19,0.723 -1.773,1.796 -1.773,3.219c0,1.259 0.63,2.262 1.913,2.962c0.606,0.327 1.889,0.77 3.825,1.283c1.912,0.49 3.242,0.956 3.965,1.399c1.189,0.7 1.796,1.726 1.796,3.032c0,1.167 -0.537,2.123 -1.563,2.823c-1.05,0.699 -2.379,1.049 -4.012,1.049c-1.632,0 -2.939,-0.42 -3.918,-1.259c-1.073,-0.933 -1.679,-2.263 -1.819,-4.012l-0.537,0c0.14,1.936 0.793,3.405 1.959,4.432c1.073,0.932 2.519,1.399 4.339,1.399c1.749,0 3.195,-0.397 4.315,-1.143c1.189,-0.816 1.796,-1.912 1.796,-3.289c0,-1.492 -0.677,-2.659 -1.983,-3.452c-0.793,-0.513 -2.216,-1.026 -4.245,-1.539c-1.726,-0.466 -2.869,-0.84 -3.429,-1.119c-1.236,-0.63 -1.842,-1.493 -1.842,-2.566c0,-1.213 0.49,-2.123 1.493,-2.752c0.909,-0.607 2.145,-0.887 3.685,-0.887c1.586,0 2.845,0.397 3.778,1.237c0.91,0.816 1.446,1.959 1.586,3.451l0.56,0c-0.14,-1.632 -0.746,-2.915 -1.773,-3.848c-1.026,-0.933 -2.425,-1.399 -4.151,-1.399Z" style="fill:none;fill-rule:nonzero;stroke-miterlimit:2;"/>
        </symbol>
        <symbol id="product" width="100%" height="100%" viewBox="0 0 100 100" style="fill-rule:evenodd;clip-rule:evenodd;stroke-miterlimit:10;">
            <path d="M67.049,28.125l22.203,0l0,63.525l-54.49,0l0,-24.731" style="fill:none;"/>
            <path d="M61.695,18.657l17.658,0l0,68.148l-58.456,0l0,-26.528" style="fill:none;fill-rule:nonzero;"/>
            <path d="M56.274,62.042c-0.776,0.555 -1.582,1.07 -2.415,1.544" style="fill:none;fill-rule:nonzero;"/>
            <path d="M43.054,67.151c-1.101,0.129 -2.218,0.197 -3.349,0.197c-15.991,0 -28.957,-13.207 -28.957,-29.499c0,-16.292 12.966,-29.499 28.957,-29.499c15.99,0 28.954,13.207 28.954,29.499c0,8.761 -3.749,16.631 -9.702,22.035" style="fill:none;fill-rule:nonzero;"/>
            <path d="M39.705,25.348c-0.332,0 -0.565,0.109 -0.764,0.364c-0.233,0.219 -0.333,0.474 -0.333,0.838c0,0.328 0.1,0.62 0.333,0.838c0.199,0.219 0.432,0.365 0.764,0.365c0.3,0 0.565,-0.146 0.765,-0.365c0.199,-0.218 0.332,-0.51 0.332,-0.838c0,-0.364 -0.133,-0.619 -0.332,-0.838c-0.2,-0.255 -0.465,-0.364 -0.765,-0.364Z" style="stroke-miterlimit:2;"/>
            <rect x="39.306" y="31.507" width="0.798" height="18.842" style="fill:none;stroke-miterlimit:2;"/>
        </symbol>
        <symbol id="member" width="100%" height="100%" viewBox="0 0 100 100" style="fill-rule:evenodd;clip-rule:evenodd;stroke-miterlimit:10;">
            <path d="M71.154,44.869l-5.038,0c-0.301,-0.904 -0.682,-1.776 -1.13,-2.602l3.599,-3.599c0.563,-0.567 0.563,-1.485 0,-2.049l-5.207,-5.207c-0.563,-0.567 -1.482,-0.567 -2.049,0l-3.771,3.772c-0.779,-0.381 -1.586,-0.703 -2.429,-0.965l0,-5.376c0,-0.8 -0.646,-1.45 -1.45,-1.45l-7.364,0c-0.8,0 -1.446,0.65 -1.446,1.45l0,5.376c-0.843,0.262 -1.65,0.584 -2.429,0.965l-3.775,-3.772c-0.563,-0.567 -1.482,-0.567 -2.049,0l-5.203,5.207c-0.567,0.564 -0.567,1.482 0,2.049l3.595,3.599c-0.448,0.826 -0.829,1.698 -1.13,2.602l-5.034,0c-0.804,0 -1.45,0.649 -1.45,1.45l0,7.363c0,0.8 0.646,1.446 1.45,1.446l5.034,0c0.301,0.904 0.682,1.776 1.13,2.602l-3.595,3.599c-0.567,0.567 -0.567,1.486 0,2.053l5.203,5.203c0.567,0.567 1.486,0.567 2.049,0l3.775,-3.768c0.779,0.377 1.586,0.7 2.429,0.962l0,5.375c0,0.8 0.646,1.45 1.446,1.45l7.364,0c0.804,0 1.45,-0.65 1.45,-1.45l0,-5.375c0.843,-0.262 1.65,-0.585 2.429,-0.962l3.771,3.768c0.567,0.567 1.486,0.567 2.049,0l5.207,-5.203c0.563,-0.567 0.563,-1.486 0,-2.053l-3.599,-3.599c0.448,-0.826 0.829,-1.698 1.13,-2.602l5.038,0c0.801,0 1.446,-0.646 1.446,-1.446l0,-7.363c0,-0.801 -0.645,-1.45 -1.446,-1.45Z" style="fill:none;fill-rule:nonzero;"/>
            <path d="M59.737,43.469c1.253,1.866 1.985,4.112 1.985,6.531c0,6.473 -5.25,11.723 -11.723,11.723c-6.477,0 -11.724,-5.25 -11.724,-11.723c0,-6.474 5.247,-11.724 11.724,-11.724c1.385,0 2.716,0.241 3.95,0.682" style="fill:none;fill-rule:nonzero;"/>
            <path d="M30.368,14.299l-13.701,6.301l0,43.427c0,15.864 33.545,30.699 33.545,30.699c0,0 32.697,-15.254 33.121,-30.699l0,-13.83l0,-10.514l0,-19.083l-33.333,-15.326l-6.922,3.183" style="fill:none;fill-rule:nonzero;"/>
            <path d="M36.753,11.364l-2.864,1.317" style="fill:none;fill-rule:nonzero;"/>
            <path d="M57.47,40.967c0.441,0.362 0.854,0.757 1.238,1.184" style="fill:none;fill-rule:nonzero;"/>
            <path d="M43.499,57.083c-0.445,-0.409 -0.851,-0.861 -1.213,-1.346" style="fill:none;fill-rule:nonzero;"/>
        </symbol>
        <symbol id="beginner" width="100%" height="100%" viewBox="0 0 100 100" style="fill-rule:evenodd;clip-rule:evenodd;stroke-linecap:round;stroke-linejoin:round;stroke-miterlimit:10;">
            <path d="M21.484,21.841l24.892,28.467l9.967,-41.404c-2.043,-0.355 -4.142,-0.541 -6.284,-0.541c-11.428,0 -21.669,5.228 -28.575,13.478Z" style="fill:none;fill-rule:nonzero;"/>
            <path d="M21.484,21.841c-5.659,6.762 -9.082,15.557 -9.082,25.169c0,1.296 0.042,1.969 0.042,3.281l0.005,0c0,3.225 2.613,5.841 5.841,5.841c1.843,0 3.478,-0.858 4.55,-2.187c1.073,1.329 2.712,2.187 4.554,2.187c1.839,0 3.478,-0.858 4.551,-2.187c1.072,1.329 2.707,2.187 4.554,2.187c1.839,0 3.481,-0.858 4.55,-2.187c1.073,1.329 2.708,2.187 4.554,2.187c1.839,0 3.481,-0.858 4.551,-2.187c1.069,1.329 2.711,2.187 4.553,2.187c1.84,0 3.482,-0.858 4.551,-2.187c1.069,1.329 2.711,2.187 4.55,2.187c1.843,0 3.485,-0.858 4.554,-2.187c1.069,1.329 2.712,2.187 4.551,2.187c1.842,0 3.485,-0.858 4.554,-2.187c1.069,1.329 2.711,2.187 4.55,2.187c3.207,0 5.813,-2.588 5.838,-5.788l-0.003,0c0.065,-14.874 11.085,-13.83 11.085,-13.83" style="fill:none;"/>
            <path d="M24.735,50.291l3.373,0" style="fill:none;fill-rule:nonzero;"/>
            <path d="M62.209,85.161l-22.211,0" style="fill:none;"/>
            <path d="M27.053,84.503c-8.403,-2.167 -14.609,-9.812 -14.609,-18.905l0,-15.307l6.815,0" style="fill:none;"/>
            <path d="M75.094,83.919c7.443,-2.733 12.756,-9.907 12.756,-18.321l0,-15.247l-57.929,-0.06" style="fill:none;"/>
            <path d="M39.998,85.161c0,-3.59 -2.915,-6.505 -6.505,-6.505c-3.591,0 -6.506,2.915 -6.506,6.505c0,3.591 2.915,6.506 6.506,6.506c3.59,0 6.505,-2.915 6.505,-6.506Z" style="fill:none;"/>
            <path d="M75.22,85.161c0,-3.59 -2.915,-6.505 -6.506,-6.505c-3.59,0 -6.505,2.915 -6.505,6.505c0,3.591 2.915,6.506 6.505,6.506c3.591,0 6.506,-2.915 6.506,-6.506Z" style="fill:none;"/>
        </symbol>
        <symbol id="cart" width="100%" height="100%" viewBox="0 0 100 100" style="fill-rule:evenodd;clip-rule:evenodd;stroke-miterlimit:10;">
            <path d="M62.719,16.56l0.001,-0.001c2.567,-2.125 5.911,-3.457 9.616,-3.457c8.012,0 14.503,6.036 14.503,13.486c0,1.956 -0.47,3.806 -1.276,5.49l-23.714,-0.056l5.195,-5.623c1.607,-1.745 1.502,-4.462 -0.243,-6.069l-4.082,-3.77l0,0Z" style="fill: currentColor;stroke-width:0;"/>
            <path d="M41.913,32.077c0.587,-1.466 0.956,-3.033 0.956,-4.689c0,-4.178 -2.089,-7.867 -5.292,-10.336c-2.514,-1.94 -5.693,-3.15 -9.211,-3.15c-8.013,0 -14.503,6.036 -14.503,13.486c0,1.656 0.36,3.223 0.951,4.689l27.099,0Z" style="fill: currentColor;stroke-width:0;fill-rule:nonzero;"/>
            <path d="M36.073,82.622c0,1.558 -1.263,2.822 -2.822,2.822c-1.559,0 -2.826,-1.264 -2.826,-2.822c0,-1.563 1.267,-2.823 2.826,-2.823c1.559,0 2.822,1.26 2.822,2.823" style="fill-rule:nonzero;"/>
            <path d="M70.54,82.622c0,1.546 -1.252,2.8 -2.8,2.8c-1.545,0 -2.8,-1.254 -2.8,-2.8c0,-1.551 1.255,-2.8 2.8,-2.8c1.548,0 2.8,1.249 2.8,2.8" style="fill-rule:nonzero;"/>
            <path d="M42.278,82.573c0,-4.982 -4.046,-9.027 -9.029,-9.027c-4.983,0 -9.029,4.045 -9.029,9.027c0,4.982 4.046,9.027 9.029,9.027c4.983,0 9.029,-4.045 9.029,-9.027Z" style="fill:none;"/>
            <path d="M76.768,82.622c0,-4.983 -4.045,-9.027 -9.028,-9.027c-4.984,0 -9.029,4.044 -9.029,9.027c0,4.982 4.045,9.026 9.029,9.026c4.983,0 9.028,-4.044 9.028,-9.026Z" style="fill:none;"/>
            <path d="M42.18,83.614l16.628,0" style="fill:none;fill-rule:nonzero;"/>
            <path d="M76.692,83.383c8.511,-1.141 15.102,-8.356 15.102,-17.179l0,-5.749l0,-10.964l0,-17.414l-17.418,0l-48.756,0l-17.414,0l0,34.127c0,9.167 7.11,16.596 16.102,17.281" style="fill:none;fill-rule:nonzero;"/>
            <path d="M43.243,41.657l48.549,0" style="fill:none;fill-rule:nonzero;"/>
            <path d="M25.348,41.657l14.239,0" style="fill:none;fill-rule:nonzero;"/>
            <path d="M21.354,91.616l46.386,0" style="fill:none;fill-rule:nonzero;"/>
            <path d="M13.09,91.584l4.45,0" style="fill:none;fill-rule:nonzero;"/>
            <path d="M8.207,41.657l10.645,0" style="fill:none;fill-rule:nonzero;"/>
            <path d="M41.913,32.077c0.587,-1.466 0.956,-3.033 0.956,-4.689c0,-4.178 -2.089,-7.867 -5.292,-10.336c-2.514,-1.94 -5.693,-3.15 -9.211,-3.15c-8.013,0 -14.503,6.036 -14.503,13.486c0,1.656 0.36,3.223 0.951,4.689" style="fill:none;fill-rule:nonzero;"/>
            <path d="M61.8,32.075l5.244,-5.676c1.607,-1.745 1.502,-4.462 -0.243,-6.069l-4.082,-3.77l-10.174,-9.393c-1.741,-1.608 -4.458,-1.502 -6.07,0.243l-8.899,9.64" style="fill:none;fill-rule:nonzero;"/>
            <path d="M85.563,32.078c0.806,-1.684 1.276,-3.534 1.276,-5.49c0,-7.45 -6.491,-13.486 -14.503,-13.486c-3.705,0 -7.049,1.332 -9.616,3.457" style="fill:none;fill-rule:nonzero;"/>
        </symbol>
        <symbol id="recent" width="100%" height="100%" viewBox="0 0 100 100" style="fill-rule:evenodd;clip-rule:evenodd;stroke-miterlimit:10;">
            <path d="M8.548,45.913c-0.131,1.345 -0.197,2.709 -0.197,4.087c0,23.002 18.647,41.65 41.649,41.65c11.291,0 21.538,-4.495 29.039,-11.795l0.408,-0.402l3.25,3.121l3.826,-15.551l-15.377,4.461l3.733,3.585l-0.118,0.15c-6.404,6.211 -15.136,10.037 -24.761,10.037c-0.652,0 -1.301,-0.017 -1.946,-0.05" style="fill:none;fill-rule:nonzero;"/>
            <path d="M45.926,85.024c-1.334,-0.15 -2.648,-0.378 -3.936,-0.675" style="fill:none;fill-rule:nonzero;"/>
            <path d="M53.813,14.345c1.251,0.134 2.485,0.331 3.693,0.592" style="fill:none;fill-rule:nonzero;"/>
            <path d="M51.077,14.159c-0.358,-0.01 -0.716,-0.017 -1.077,-0.017c-9.682,0 -18.457,3.87 -24.869,10.147l-0.384,0.381l3.776,3.779l-15.468,4.144l4.144,-15.468l3.351,3.425l0.425,-0.421c7.501,-7.291 17.738,-11.779 29.025,-11.779c23.002,0 41.649,18.644 41.649,41.65c0,1.147 -0.046,2.281 -0.137,3.408" style="fill:none;fill-rule:nonzero;"/>
            <path d="M49.845,69.803c0,-2.152 -1.76,-3.899 -3.929,-3.899c-2.169,0 -3.93,1.747 -3.93,3.899c0,2.153 1.761,3.9 3.93,3.9c2.169,0 3.929,-1.747 3.929,-3.9Z" style="fill:none;stroke-linejoin:round;"/>
            <path d="M32.598,66.281c-1.475,-0.843 -1.983,-2.715 -1.13,-4.18l1.735,-2.983c0.853,-1.465 2.739,-1.967 4.211,-1.121c1.478,0.843 1.983,2.716 1.13,4.181l-1.732,2.983c-0.853,1.465 -2.743,1.966 -4.214,1.12Z" style="fill:none;fill-rule:nonzero;stroke-linejoin:round;"/>
            <path d="M38.026,69.392c-1.475,-0.843 -1.983,-2.716 -1.13,-4.18l2.695,-4.629c0.85,-1.465 2.736,-1.966 4.214,-1.12c1.472,0.846 1.977,2.715 1.124,4.18l-2.689,4.629c-0.853,1.465 -2.739,1.966 -4.214,1.12Z" style="fill:none;fill-rule:nonzero;stroke-linejoin:round;"/>
            <path d="M32.333,59.609c0,-2.152 -1.76,-3.899 -3.927,-3.899c-2.168,0 -3.928,1.747 -3.928,3.899c0,2.152 1.76,3.899 3.928,3.899c2.167,0 3.927,-1.747 3.927,-3.899Z" style="fill:none;stroke-linejoin:round;"/>
            <path d="M49.078,72.109l1.659,1.208l0.471,0.18c0.392,0.134 0.816,0.204 1.258,0.204c2.167,0 3.926,-1.746 3.926,-3.896c0,-0.542 -0.231,-0.752 -0.428,-1.221l-4.796,-3.715l6.501,5.04l0.472,0.18c0.395,0.134 0.816,0.208 1.257,0.208c2.168,0 3.927,-1.746 3.927,-3.9c0,-0.538 -0.107,-1.05 -0.308,-1.518l-8.555,-5.705l9.986,6.655l0.469,0.18c0.394,0.134 0.816,0.208 1.257,0.208c2.17,0 3.926,-1.746 3.926,-3.9c0,-0.538 -0.311,-0.729 -0.505,-1.194l-11.511,-7.682l13.14,8.773l0.471,0.18c0.395,0.134 0.816,0.204 1.258,0.204c2.167,0 3.926,-1.746 3.926,-3.899c0,-0.535 -0.11,-1.05 -0.308,-1.515l-14.815,-9.97l-10.999,0l-5.411,4.445c-0.442,0.247 -0.937,0.418 -1.475,0.478c-2.137,0.244 -4.07,-1.307 -4.318,-3.461c-0.046,-0.438 -0.023,-0.866 0.064,-1.274l0.127,-0.489l8.849,-8.461l15.243,-2.555l8.485,7.425l-6.241,-5.462l15.357,0.041l-0.001,15.714l-4.873,0l-2.759,1.706" style="fill:none;stroke-linejoin:round;"/>
            <path d="M26.949,55.993l-3.318,-2.418l-5.066,0l0,-15.698l7.013,0l18.146,-1.979l0.468,0.03l14.34,0.859" style="fill:none;stroke-linejoin:round;"/>
        </symbol>
        <symbol id="search" width="100%" height="100%" viewBox="0 0 100 100" style="fill-rule:evenodd;clip-rule:evenodd;stroke-miterlimit:10;">
            <path d="M39.266,77.894l-37.765,0c0.518,3.833 3.766,6.792 7.737,6.792l80.592,0c3.972,0 7.216,-2.959 7.738,-6.792l-37.963,0" style="fill:none;fill-rule:nonzero;"/>
            <path d="M8.996,35.149l0,-14.934c0,-2.705 2.195,-4.901 4.901,-4.901l71.273,0c2.701,0 4.897,2.196 4.897,4.901l0,14.756" style="fill:none;"/>
            <path d="M90.067,54.526l0,20.38" style="fill:none;fill-rule:nonzero;"/>
            <path d="M8.996,74.906l0,-20.558" style="fill:none;fill-rule:nonzero;"/>
            <path d="M20.619,54.62l-3.054,0" style="fill:none;fill-rule:nonzero;"/>
            <path d="M14.099,54.62l-2.805,0c-5.411,0 -9.794,-4.391 -9.794,-9.806l0,-0.135c0,-5.415 4.383,-9.802 9.794,-9.802l77.412,0c5.411,0 9.794,4.387 9.794,9.802l0,0.135c0,5.415 -4.383,9.806 -9.794,9.806l-65.347,0" style="fill:none;fill-rule:nonzero;"/>
            <path d="M87.664,40.737c-1.795,-1.8 -4.714,-1.804 -6.515,-0.009c-1.801,1.796 -1.805,4.715 -0.011,6.515c1.795,1.8 4.714,1.804 6.515,0.009c1.801,-1.795 1.805,-4.714 0.011,-6.515Z" style="fill:none;"/>
            <path d="M87.637,47.243l2.856,2.871" style="fill:none;fill-rule:nonzero;"/>
            <path d="M16.788,44.751c0,1.298 -1.05,2.348 -2.348,2.348c-1.297,0 -2.347,-1.05 -2.347,-2.348c0,-1.297 1.05,-2.35 2.347,-2.35c1.298,0 2.348,1.053 2.348,2.35" style="fill-rule:nonzero;stroke-linejoin:round;stroke-miterlimit:2;"/>
            <path d="M27.035,44.751c0,1.298 -1.051,2.348 -2.348,2.348c-1.298,0 -2.348,-1.05 -2.348,-2.348c0,-1.297 1.05,-2.35 2.348,-2.35c1.297,0 2.348,1.053 2.348,2.35" style="fill-rule:nonzero;stroke-linejoin:round;stroke-miterlimit:2;"/>
            <path d="M37.281,44.751c0,1.298 -1.05,2.348 -2.348,2.348c-1.297,0 -2.348,-1.05 -2.348,-2.348c0,-1.297 1.051,-2.35 2.348,-2.35c1.298,0 2.348,1.053 2.348,2.35" style="fill-rule:nonzero;stroke-linejoin:round;stroke-miterlimit:2;"/>
            <path d="M47.528,44.751c0,1.298 -1.051,2.348 -2.348,2.348c-1.298,0 -2.348,-1.05 -2.348,-2.348c0,-1.297 1.05,-2.35 2.348,-2.35c1.297,0 2.348,1.053 2.348,2.35" style="fill-rule:nonzero;stroke-linejoin:round;stroke-miterlimit:2;"/>
        </symbol>
        <symbol id="track" width="100%" height="100%" viewBox="0 0 100 100" style="fill-rule:evenodd;clip-rule:evenodd;stroke-miterlimit:10;">
            <path d="M49.976,12.024c20.945,0 37.95,17.005 37.95,37.95c0,20.945 -17.005,37.95 -37.95,37.95c-20.945,0 -37.95,-17.005 -37.95,-37.95c0,-20.945 17.005,-37.95 37.95,-37.95Zm0,6.1c17.578,0 31.85,14.271 31.85,31.85c0,17.578 -14.272,31.85 -31.85,31.85c-17.579,0 -31.85,-14.272 -31.85,-31.85c0,-17.579 14.271,-31.85 31.85,-31.85Z" style="fill: currentColor;stroke-width:0;fill-rule:evenodd;"/>
            <path d="M50.002,81.86c-17.595,0 -31.86,-14.265 -31.86,-31.86c0,-17.595 14.265,-31.855 31.86,-31.855c17.591,0 31.856,14.26 31.856,31.855c0,17.595 -14.265,31.86 -31.856,31.86Zm23.033,-1.729c0.541,-0.411 1.07,-0.842 1.587,-1.281m1.488,-1.343c7.277,-6.914 11.816,-16.68 11.816,-27.507c0,-20.943 -16.981,-37.924 -37.924,-37.924c-20.947,0 -37.928,16.981 -37.928,37.924c0,20.943 16.981,37.924 37.928,37.924c6.207,0 12.076,-1.493 17.246,-4.137" style="fill:none;"/>
            <rect x="7" y="49.132" width="18.116" height="1.733" style="fill:none;"/>
            <rect x="74.884" y="49.132" width="18.116" height="1.733" style="fill:none;"/>
            <rect x="49.134" y="6.998" width="1.733" height="18.116" style="fill:none;"/>
            <rect x="49.134" y="74.886" width="1.733" height="18.116" style="fill:none;"/>
        </symbol>
        <symbol id="standing" width="100%" height="100%" viewBox="0 0 100 100" style="fill-rule:evenodd;clip-rule:evenodd;stroke-miterlimit:10;">
            <path d="M59.682,32.893c0,-6.346 -5.147,-11.489 -11.493,-11.489c-6.346,0 -11.489,5.143 -11.489,11.489c0,0.462 0.036,0.912 0.088,1.362l-0.175,0c0.056,-0.45 0.087,-0.9 0.087,-1.362c0,-6.346 -5.146,-11.489 -11.488,-11.489c-6.346,0 -11.489,5.143 -11.489,11.489c0,0.462 0.028,0.912 0.076,1.362c0,10.398 22.901,26.675 22.901,26.675c0,0 22.898,-16.277 22.898,-26.675l-0.004,0c0.052,-0.45 0.088,-0.9 0.088,-1.362" style="fill: currentColor;fill-rule:nonzero;"/>
            <path d="M30.984,68.714c0,0 -0.06,20.177 -3.315,23.436" style="fill:none;fill-rule:nonzero;"/>
            <path d="M61.755,92.149l0,-14.835" style="fill:none;fill-rule:nonzero;"/>
            <path d="M22.629,21.696c5.467,-8.339 14.897,-13.846 25.612,-13.846c16.898,0 30.598,13.699 30.598,30.598c0,0.601 -0.016,1.195 -0.052,1.78l-0.048,0.558c-0.007,0.207 -0.011,0.418 -0.023,0.63l8.21,16.723c0,0 1.259,2.37 -1.104,2.37l-7.812,0l0.156,14.361c0,0 0.55,2.446 -1.813,2.446l-27.431,0c0,0 -4.84,-0.869 -4.84,-6.314l-13.708,-7.708c-6.339,-4.565 -10.862,-11.501 -12.271,-19.507" style="fill:none;fill-rule:nonzero;"/>
            <path d="M51.983,47.664c4.199,-4.497 7.617,-9.389 7.617,-13.409l-0.008,0c0.056,-0.45 0.091,-0.9 0.091,-1.362c0,-6.346 -5.146,-11.489 -11.492,-11.489c-6.346,0 -11.489,5.143 -11.489,11.489c0,0.462 0.036,0.912 0.088,1.362l-0.176,0c0.052,-0.45 0.088,-0.9 0.088,-1.362c0,-6.346 -5.147,-11.489 -11.493,-11.489c-6.342,0 -11.484,5.143 -11.484,11.489c0,0.462 0.023,0.912 0.075,1.362c0,10.398 22.902,26.675 22.902,26.675c0,0 3.135,-2.227 7.083,-5.561" style="fill:none;fill-rule:nonzero;"/>
            <path d="M46.397,53.095c0.339,-0.299 2.111,-1.952 2.45,-2.263" style="fill:none;fill-rule:nonzero;"/>
        </symbol>
        <symbol id="contact" width="100%" height="100%" viewBox="0 0 100 100" style="fill-rule:evenodd;clip-rule:evenodd;stroke-linejoin:round;stroke-miterlimit:10;">
            <path d="M10.528,46.839c1.03,3.825 2.401,7.641 3.948,11.238c6.875,16.023 20.076,26.805 33.579,29.087c0,0 7.103,-2.394 8.851,-4.142c1.751,-1.751 1.863,-4.022 0.67,-5.216c-1.191,-1.19 -12.364,-12.585 -12.364,-12.585c0,0 -2.493,-1.38 -4.169,0.296c-1.676,1.677 -4.543,3.054 -4.543,3.054c0,0 -4.655,2.346 -8.94,-1.935c-4.281,-4.285 -10.129,-20.78 -10.129,-20.78c0,0 -2.231,-6.631 5.512,-9.011l4.097,-1.044c0,0 2.683,-0.52 2.683,-2.982l-1.343,-16.267c0,0 -0.595,-4.659 -4.988,-3.544c-4.397,1.119 -7.784,3.765 -9.627,5.608c-3.876,3.873 -5.322,9.463 -5.192,15.703" style="fill:none;"/>
            <path d="M9.309,41.426c0.153,0.867 0.33,1.741 0.527,2.618" style="fill:none;"/>
            <path d="M21.53,18.669l2.448,17.91" style="fill:none;"/>
            <path d="M51.097,80.265l-12.616,-12.799" style="fill:none;"/>
            <path d="M87.593,70.685l0,9.579l-16.743,0.001" style="fill:none;"/>
            <path d="M87.593,65.444l0,2.02" style="fill:none;"/>
            <path d="M42.737,25.596l44.856,0l0,20.18" style="fill:none;"/>
            <path d="M87.593,54.272l0,6.083" style="fill:none;"/>
            <path d="M42.737,25.596c0,-2.359 -1.915,-4.274 -4.274,-4.274c-2.359,0 -4.275,1.915 -4.275,4.274c0,2.359 1.916,4.275 4.275,4.275c2.359,0 4.274,-1.916 4.274,-4.275Z" style="fill:none;"/>
            <path d="M91.865,50c0,-2.358 -1.915,-4.273 -4.273,-4.273c-2.358,0 -4.272,1.915 -4.272,4.273c0,2.358 1.914,4.272 4.272,4.272c2.358,0 4.273,-1.914 4.273,-4.272Z" style="fill:none;"/>
            <path d="M70.85,80.265c0,-2.359 -1.915,-4.275 -4.273,-4.275c-2.358,0 -4.272,1.916 -4.272,4.275c0,2.359 1.914,4.274 4.272,4.274c2.358,0 4.273,-1.915 4.273,-4.274Z" style="fill:none;"/>
        </symbol>
        <symbol id="board" width="100%" height="100%" viewBox="0 0 100 100" style="fill-rule:evenodd;clip-rule:evenodd;stroke-miterlimit:10;">
            <path d="M12.977,77.271l51.634,0l13.575,17.005l0,-17.005l8.837,0c2.556,0 4.627,-2.082 4.627,-4.65l0,-54.074c0,-2.567 -2.071,-4.65 -4.627,-4.65l-74.046,0c-2.552,0 -4.627,2.083 -4.627,4.65l0,54.074c0,2.568 2.075,4.65 4.627,4.65Z" style="fill: currentColor;fill-rule:nonzero;"/>
            <path d="M46.632,77.271l17.979,0l13.575,17.005l0,-17.005l8.837,0c2.556,0 4.627,-2.082 4.627,-4.65l0,-54.074c0,-2.567 -2.071,-4.65 -4.627,-4.65l-74.046,0c-2.552,0 -4.627,2.083 -4.627,4.65l0,54.074c0,2.568 2.075,4.65 4.627,4.65l23.979,0" style="fill:none;"/>
            <path d="M33.435,45.584c0,2.216 -1.793,4.015 -4,4.015c-2.207,0 -4,-1.799 -4,-4.015c0,-2.219 1.793,-4.015 4,-4.015c2.207,0 4,1.796 4,4.015" style="stroke-miterlimit:2;"/>
            <path d="M54,45.584c0,2.217 -1.79,4.017 -3.998,4.017c-2.211,0 -4.002,-1.8 -4.002,-4.017c0,-2.22 1.791,-4.016 4.002,-4.016c2.208,0 3.998,1.796 3.998,4.016" style="stroke-miterlimit:2;"/>
            <path d="M74.552,45.584c0,2.208 -1.786,4 -3.985,4c-2.2,0 -3.983,-1.792 -3.983,-4c0,-2.211 1.783,-4 3.983,-4c2.199,0 3.985,1.789 3.985,4" style="stroke-linejoin:round;stroke-miterlimit:2;"/>
        </symbol>
        <symbol id="signin" width="100%" height="100%" viewBox="0 0 100 100" style="fill-rule:evenodd;clip-rule:evenodd;stroke-miterlimit:10;">
            <path d="M91.738,28.351l-75.372,0l0,-11.518c0,-2.394 1.939,-4.333 4.333,-4.333l66.709,0c2.394,0 4.33,1.939 4.33,4.333l0,11.518Zm-64.192,-8.431c0,0.93 -0.753,1.683 -1.682,1.683c-0.926,0 -1.68,-0.753 -1.68,-1.683c0,-0.929 0.754,-1.679 1.68,-1.679c0.929,0 1.682,0.75 1.682,1.679Zm7.457,0c0,0.93 -0.754,1.683 -1.683,1.683c-0.926,0 -1.679,-0.753 -1.679,-1.683c0,-0.929 0.753,-1.679 1.679,-1.679c0.929,0 1.683,0.75 1.683,1.679Zm7.456,0c0,0.93 -0.753,1.683 -1.683,1.683c-0.925,0 -1.679,-0.753 -1.679,-1.683c0,-0.929 0.754,-1.679 1.679,-1.679c0.93,0 1.683,0.75 1.683,1.679Z" style="stroke-width: 0px;fill-rule:evenodd;stroke: transparent;"/>
            <path d="M16.365,43.761l0,-26.941c0,-2.383 1.933,-4.32 4.323,-4.32l66.73,0c2.387,0 4.323,1.937 4.323,4.32l0,66.356c0,2.387 -1.936,4.323 -4.323,4.323l-66.73,0c-2.39,0 -4.323,-1.936 -4.323,-4.323l0,-20.575" style="fill:none;fill-rule:nonzero;"/>
            <path d="M30.606,62.6l6.924,0l0,5.953c0,3.291 3.563,5.347 6.414,3.703l26.627,-15.373c2.848,-1.644 2.848,-5.759 0,-7.407l-26.627,-15.369c-2.851,-1.647 -6.414,0.408 -6.414,3.703l0,5.95l-28.275,0c-2.566,0 -4.643,2.08 -4.643,4.643l0,9.554c0,2.566 2.077,4.643 4.643,4.643l15.423,0" style="fill:none;fill-rule:nonzero;"/>
        </symbol>
        <symbol id="signout" width="100%" height="100%" viewBox="0 0 100 100" style="fill-rule:evenodd;clip-rule:evenodd;stroke-miterlimit:10;">
            <path d="M91.738,28.351l-75.372,0l0,-11.518c0,-2.394 1.939,-4.333 4.333,-4.333l66.709,0c2.394,0 4.33,1.939 4.33,4.333l0,11.518Zm-64.192,-8.431c0,0.93 -0.753,1.683 -1.682,1.683c-0.926,0 -1.68,-0.753 -1.68,-1.683c0,-0.929 0.754,-1.679 1.68,-1.679c0.929,0 1.682,0.75 1.682,1.679Zm7.457,0c0,0.93 -0.754,1.683 -1.683,1.683c-0.926,0 -1.679,-0.753 -1.679,-1.683c0,-0.929 0.753,-1.679 1.679,-1.679c0.929,0 1.683,0.75 1.683,1.679Zm7.456,0c0,0.93 -0.753,1.683 -1.683,1.683c-0.925,0 -1.679,-0.753 -1.679,-1.683c0,-0.929 0.754,-1.679 1.679,-1.679c0.93,0 1.683,0.75 1.683,1.679Z" style="stroke-width: 0px;fill-rule:evenodd;stroke: transparent;"/>
            <path d="M16.365,43.925l0,-27.105c0,-2.383 1.933,-4.32 4.323,-4.32l66.73,0c2.387,0 4.323,1.937 4.323,4.32l0,66.356c0,2.387 -1.936,4.323 -4.323,4.323l-66.73,0c-2.39,0 -4.323,-1.936 -4.323,-4.323l0,-20.741" style="fill:none;"/>
            <path d="M46.714,62.6l-6.925,0l0,5.953c0,3.291 -3.562,5.347 -6.414,3.703l-26.627,-15.373c-2.848,-1.644 -2.848,-5.759 0,-7.407l26.627,-15.369c2.852,-1.647 6.414,0.408 6.414,3.703l0,5.95l28.275,0c2.566,0 4.643,2.08 4.643,4.643l0,9.554c0,2.566 -2.077,4.643 -4.643,4.643l-15.422,0" style="fill:none;fill-rule:nonzero;"/>
        </symbol>
        <symbol id="new" width="100%" height="100%" viewBox="0 0 100 100" style="fill-rule:evenodd;clip-rule:evenodd;stroke-miterlimit:10;">
            <path d="M93.035,46.227c3.281,-3.743 -1.736,-7.366 -6.115,-4.453c-1.644,1.094 -7.138,4.599 -7.138,4.599" style="fill:none;"/>
            <rect x="4.999" y="58.386" width="8.798" height="23.288" style="fill:none;"/>
            <path d="M81.389,50.473l6.6,-4.272c0,0 2.074,-1.987 4.51,-0.362c2.437,1.624 3.523,4.148 1.266,6.405c-2.261,2.257 -21.301,13.543 -21.301,13.543l-28.026,9.836l-30.641,2.045" style="fill:none;"/>
            <path d="M13.797,59.286l4.935,-3.055" style="fill:none;"/>
            <path d="M21.468,54.536l3.889,-2.407" style="fill:none;"/>
            <path d="M54.086,55.224l0.003,0.03" style="fill:none;"/>
            <path d="M54.089,55.254l0.278,5.838c0.022,0.249 0.077,0.498 0.191,0.739c0.519,1.119 1.858,1.602 2.996,1.079c0.124,-0.058 0.241,-0.132 0.351,-0.208l10.06,-8.385l12.544,3.475c0.245,0.055 0.497,0.077 0.761,0.048c1.225,-0.146 2.103,-1.273 1.953,-2.513c-0.015,-0.139 -0.048,-0.271 -0.088,-0.399l-4.785,-12.207l7.152,-10.85c0.128,-0.216 0.231,-0.447 0.282,-0.706c0.241,-1.215 -0.56,-2.397 -1.789,-2.638c-0.135,-0.026 -0.271,-0.037 -0.406,-0.04l-13.078,0.794l-8.129,-10.188c-0.164,-0.187 -0.354,-0.359 -0.585,-0.487c-1.079,-0.6 -2.451,-0.205 -3.062,0.889c-0.066,0.121 -0.117,0.245 -0.161,0.373l-3.252,12.701l-12.002,4.482l-0.213,0.08c-0.23,0.095 -0.449,0.227 -0.643,0.402c-0.908,0.842 -0.955,2.268 -0.103,3.187c0.095,0.102 0.198,0.19 0.304,0.27l0.007,0.004c0.018,0.015 0.037,0.037 0.059,0.051l0.259,0.161l9.274,5.897" style="fill:none;"/>
            <path d="M72.965,55.774l-6.08,3.069" style="fill:none;"/>
            <path d="M26.257,51.571l7.214,-4.467l29.426,0c0,0 1.171,8.125 -4.697,8.125l-11.823,0" style="fill:none;"/>
        </symbol>
        <symbol id="category" width="100%" height="100%" viewBox="0 0 100 100" style="fill-rule:evenodd;clip-rule:evenodd;stroke-miterlimit:10;">
            <path d="M90.251,74.71l0,-54.256c0,-2.686 -2.18,-4.866 -4.865,-4.866l-70.776,0c-2.685,0 -4.861,2.18 -4.861,4.866l0,54.256" style="fill:none;"/>
            <path d="M39.803,77.675l-37.503,0c0.516,3.8 3.742,6.736 7.684,6.736l80.032,0c3.938,0 7.164,-2.936 7.684,-6.736l-37.699,0" style="fill:none;"/>
            <path d="M26.003,36.781l0,-13.395" style="fill:none;"/>
            <path d="M49.998,23.386l0,31.973l23.999,0l0,-31.973" style="fill:none;"/>
            <path d="M4.263,36.781l91.474,0.001c1.245,0 2.259,-0.732 2.259,-1.632l0,-10.134c0,-0.901 -1.014,-1.629 -2.259,-1.629l-91.474,-0.001c-1.249,0 -2.259,0.732 -2.259,1.632l0,10.134c0,0.901 1.01,1.629 2.259,1.629Z" style="fill:none;"/>
            <path d="M53.777,70.19l1.154,-20.891l-18.651,9.445l8.572,2.173l-5.742,8.792l3.495,2.286l5.743,-8.792l5.429,6.987Z" style="fill-rule:nonzero;"/>
        </symbol>
        <symbol id="m-track" width="100%" height="100%" viewBox="0 0 100 100" style="fill-rule:evenodd;clip-rule:evenodd;stroke-miterlimit:10;">
            <path d="M20.906,38.619l4.212,30.407" style="fill:none;"/>
            <path d="M30.254,25.544c0.261,0.903 0.401,1.857 0.401,2.844c0,5.487 -4.325,9.973 -9.749,10.231m-5.903,-1.532c-2.902,-1.81 -4.835,-5.031 -4.835,-8.699c0,-5.654 4.59,-10.244 10.243,-10.244c2.458,0 4.714,0.867 6.48,2.312" style="fill:none;"/>
            <path d="M73.701,80.128c0.543,-0.413 1.069,-0.843 1.585,-1.283l-1.585,1.283Z" style="fill:none;"/>
            <path d="M82.523,56.549c0,-6.732 -5.852,-12.198 -13.061,-12.198c-7.208,0 -13.06,5.466 -13.06,12.198c0,6.731 5.852,12.197 13.06,12.197c7.209,0 13.061,-5.466 13.061,-12.197Z" style="fill:none;"/>
            <path d="M58.626,63.356l-24.463,10.278" style="fill:none;"/>
            <path d="M29.768,32.546l30.105,15.723" style="fill:none;"/>
            <path d="M20.418,72.87c-4.814,-6.358 -7.669,-14.281 -7.669,-22.871c0,-20.945 16.975,-37.923 37.919,-37.923c20.945,0 37.923,16.978 37.923,37.923c0,10.828 -4.537,20.594 -11.812,27.504" style="fill:none;"/>
            <path d="M67.919,83.781c-5.174,2.648 -11.039,4.141 -17.251,4.141c-7.107,0 -13.756,-1.955 -19.441,-5.356" style="fill:none;"/>
            <path d="M78.671,65.199c-5.397,9.922 -15.913,16.655 -28.003,16.655c-5.883,0 -11.394,-1.595 -16.123,-4.376" style="fill:none;"/>
            <path d="M25.111,69.017c-3.956,-5.307 -6.298,-11.889 -6.298,-19.018c0,-17.594 14.265,-31.855 31.855,-31.855c17.595,0 31.856,14.261 31.856,31.855c0,1.392 -0.09,2.763 -0.263,4.108" style="fill:none;"/>
            <path d="M34.642,76.263c0,-4.15 -3.367,-7.519 -7.515,-7.519c-4.149,0 -7.516,3.369 -7.516,7.519c0,4.15 3.367,7.519 7.516,7.519c4.148,0 7.515,-3.369 7.515,-7.519Z" style="fill:none;"/>
            <rect x="7" y="49.131" width="18.12" height="1.73" style="fill:none;"/>
            <rect x="74.88" y="49.131" width="18.12" height="1.73" style="fill:none;"/>
            <rect x="49.137" y="7.002" width="1.727" height="18.117" style="fill:none;"/>
            <rect x="49.137" y="74.881" width="1.727" height="18.117" style="fill:none;"/>
        </symbol>
        <symbol id="info" width="100%" height="100%" viewBox="0 0 100 100" style="fill-rule:evenodd;clip-rule:evenodd;stroke-miterlimit:10;">
            <path d="M71.068,35.434c0,11.644 -9.44,21.084 -21.081,21.084c-11.641,0 -21.081,-9.44 -21.081,-21.084c0,-11.641 9.44,-21.081 21.081,-21.081c11.641,0 21.081,9.44 21.081,21.081Zm-31.958,13.71c0.34,-0.157 0.581,-0.255 0.581,-0.255l6.604,-2.582l0,-4.139c-2.539,-1.084 -4.32,-3.604 -4.32,-6.542l0,-4.504c0,-3.929 3.185,-7.114 7.11,-7.114l1.804,0c3.925,0 7.11,3.185 7.11,7.114l0,4.504c0,2.687 -1.49,5.025 -3.688,6.234l0,4.705l6.568,2.567c-2.989,2.381 -6.775,3.804 -10.892,3.804c-4.11,0 -7.89,-1.418 -10.877,-3.792Z" style="fill: currentColor;stroke-width: 0;"/>
            <path d="M81.089,24.415l0,-3.89" style="fill:none;fill-rule:nonzero;"/>
            <path d="M81.089,15.07l0,-6.737l-46.633,0l-15.571,14.733l0,68.601l62.204,0l0,-64.3" style="fill:none;fill-rule:nonzero;"/>
            <path d="M18.885,23.066l15.571,0l0,-14.733" style="fill:none;fill-rule:nonzero;stroke-linecap:round;stroke-linejoin:round;"/>
            <path d="M57.086,61.116l11.015,0" style="fill:none;fill-rule:nonzero;stroke-linecap:round;"/>
            <path d="M31.873,61.116l21.951,0" style="fill:none;fill-rule:nonzero;stroke-linecap:round;"/>
            <path d="M44.253,68.712l23.847,0" style="fill:none;fill-rule:nonzero;stroke-linecap:round;"/>
            <path d="M31.873,68.712l8.884,0" style="fill:none;fill-rule:nonzero;stroke-linecap:round;"/>
            <path d="M60.81,76.154l7.29,0" style="fill:none;fill-rule:nonzero;stroke-linecap:round;"/>
            <path d="M31.873,76.154l25.215,0" style="fill:none;fill-rule:nonzero;stroke-linecap:round;"/>
            <path d="M50.889,42.737l-1.804,0c-3.925,0 -7.11,-3.182 -7.11,-7.111l0,-4.504c0,-3.929 3.185,-7.114 7.11,-7.114l1.804,0c3.925,0 7.11,3.185 7.11,7.114l0,4.504c0,3.929 -3.185,7.111 -7.11,7.111Z" style="fill:none;fill-rule:nonzero;stroke-linecap:round;"/>
            <path d="M39.058,48.888l6.605,-2.581l0,-4.349" style="fill:none;fill-rule:nonzero;stroke-linecap:round;"/>
            <path d="M60.283,49.147l-6.605,-2.582l0,-4.349" style="fill:none;fill-rule:nonzero;stroke-linecap:round;"/>
        </symbol>
        <symbol id="orders" width="100%" height="100%" viewBox="0 0 100 100" style="fill-rule:evenodd;clip-rule:evenodd;stroke-miterlimit:10;">
            <path d="M19.538,29.358l0.041,-3.689" style="fill:none;fill-rule:nonzero;"/>
            <path d="M13.636,9.5c3.343,0 6.054,2.711 6.054,6.054l-12.108,0c0,-3.343 2.711,-6.054 6.054,-6.054c3.343,0 6.054,2.711 6.054,6.054" style="fill:none;fill-rule:nonzero;"/>
            <path d="M13.635,9.501l55.827,0c3.34,0 6.05,2.711 6.05,6.054l-0.22,21.76" style="fill:none;"/>
            <path d="M75.109,55.29l-0.295,29.041" style="fill:none;fill-rule:nonzero;"/>
            <path d="M76.787,46.054c0,-14.437 -11.72,-26.159 -26.155,-26.159c-14.435,0 -26.155,11.722 -26.155,26.159c0,14.437 11.72,26.158 26.155,26.158c14.435,0 26.155,-11.721 26.155,-26.158Z" style="fill:none;stroke-linecap:round;"/>
            <path d="M68.369,51.576c-2.351,7.559 -9.404,13.048 -17.74,13.048c-0.883,0 -1.759,-0.061 -2.614,-0.181" style="fill:none;fill-rule:nonzero;stroke-linecap:round;"/>
            <path d="M69.168,44.896c0.024,0.383 0.037,0.77 0.037,1.156c0,0.757 -0.048,1.499 -0.133,2.228" style="fill:none;fill-rule:nonzero;stroke-linecap:round;"/>
            <path d="M68.362,65.565l4.57,4.685" style="fill:none;fill-rule:nonzero;stroke-linecap:round;"/>
            <path d="M26.048,90.5l54.821,0c3.34,0 6.05,-2.71 6.05,-6.053l-55.824,0c0,3.343 -2.71,6.053 -6.053,6.053c-3.344,0 -6.054,-2.71 -6.054,-6.053l0.53,-51.974" style="fill:none;fill-rule:nonzero;stroke-linejoin:round;"/>
            <path d="M81.097,84.447l-8.992,-8.991c-1.885,-1.886 -1.885,-4.942 0,-6.824c1.886,-1.886 4.942,-1.886 6.827,0l12.097,12.097c1.886,1.886 1.886,4.938 0,6.824c-1.519,1.519 -3.797,1.814 -5.612,0.885c0.935,-1.065 1.502,-2.462 1.502,-3.991l-5.822,0Z" style="fill-rule:nonzero;stroke-linecap:round;"/>
        </symbol>
        <symbol id="m-board" width="100%" height="100%" viewBox="0 0 100 100" style="fill-rule:evenodd;clip-rule:evenodd;stroke-miterlimit:10;">
            <path d="M36.352,45.423l-9.793,0l-9.914,-10.144l0,10.144l-5.406,0c-1.598,0 -2.891,1.3 -2.891,2.905l0,33.805c0,1.605 1.293,2.904 2.891,2.904l46.282,0c1.601,0 2.894,-1.299 2.894,-2.904l0,-27.53" style="fill:none;fill-rule:nonzero;"/>
            <path d="M63.54,54.603l11.238,0l8.486,10.629l0,-10.629l5.525,0c1.597,0 2.89,-1.3 2.89,-2.904l0,-33.805c0,-1.605 -1.293,-2.905 -2.89,-2.905l-46.286,0c-1.598,0 -2.891,1.3 -2.891,2.905l0,33.805c0,1.604 1.293,2.904 2.891,2.904l14.992,0" style="fill:none;fill-rule:nonzero;"/>
            <path d="M60.417,54.603l0,-6.275c0,-1.605 -1.297,-2.905 -2.894,-2.905l-14.921,0" style="fill:none;fill-rule:nonzero;"/>
            <path d="M24.164,67.042c0,1.462 -1.182,2.65 -2.639,2.65c-1.459,0 -2.638,-1.188 -2.638,-2.65c0,-1.462 1.179,-2.65 2.638,-2.65c1.457,0 2.639,1.188 2.639,2.65" style="fill-rule:nonzero;stroke-linejoin:round;stroke-miterlimit:2;"/>
            <path d="M37.02,67.042c0,1.462 -1.183,2.65 -2.639,2.65c-1.459,0 -2.638,-1.188 -2.638,-2.65c0,-1.462 1.179,-2.65 2.638,-2.65c1.456,0 2.639,1.188 2.639,2.65" style="fill-rule:nonzero;stroke-linejoin:round;stroke-miterlimit:2;"/>
            <path d="M49.872,67.042c0,1.462 -1.179,2.65 -2.635,2.65c-1.46,0 -2.639,-1.188 -2.639,-2.65c0,-1.462 1.179,-2.65 2.639,-2.65c1.456,0 2.635,1.188 2.635,2.65" style="fill-rule:nonzero;stroke-linejoin:round;stroke-miterlimit:2;"/>
            <path d="M55.429,35.279c0,1.465 -1.18,2.65 -2.639,2.65c-1.456,0 -2.638,-1.185 -2.638,-2.65c0,-1.462 1.182,-2.65 2.638,-2.65c1.459,0 2.639,1.188 2.639,2.65" style="fill-rule:nonzero;stroke-linejoin:round;stroke-miterlimit:2;"/>
            <path d="M68.284,35.279c0,1.465 -1.182,2.65 -2.638,2.65c-1.457,0 -2.639,-1.185 -2.639,-2.65c0,-1.462 1.182,-2.65 2.639,-2.65c1.456,0 2.638,1.188 2.638,2.65" style="fill-rule:nonzero;stroke-linejoin:round;stroke-miterlimit:2;"/>
            <path d="M81.14,35.279c0,1.465 -1.182,2.65 -2.639,2.65c-1.456,0 -2.638,-1.185 -2.638,-2.65c0,-1.462 1.182,-2.65 2.638,-2.65c1.457,0 2.639,1.188 2.639,2.65" style="fill-rule:nonzero;stroke-linejoin:round;stroke-miterlimit:2;"/>
        </symbol>
        <symbol id="line" width="100%" height="100%" viewBox="0 0 100 100" style="fill-rule:evenodd;clip-rule:evenodd;stroke-linecap:round;stroke-miterlimit:2;">
            <path d="M90,47.442c0,-17.897 -17.943,-32.459 -40,-32.459c-22.054,0 -40,14.562 -40,32.459c0,16.044 14.23,29.488 33.452,32.028c1.302,0.279 3.074,0.86 3.525,1.974c0.404,1.008 0.264,2.589 0.129,3.614c0,0 -0.468,2.822 -0.571,3.426c-0.175,1.008 -0.804,3.955 3.464,2.154c4.271,-1.798 23.035,-13.566 31.424,-23.227c5.801,-6.352 8.577,-12.806 8.577,-19.969Z" style="fill:none;"/>
            <path d="M64.511,40.099c0,-1.155 0.941,-2.098 2.098,-2.098l7.947,0c1.158,0 2.098,0.942 2.098,2.098c0,1.158 -0.94,2.1 -2.098,2.1l-5.849,0l0,3.752l5.849,0l0,-0.002c1.158,0 2.098,0.939 2.098,2.098c0,1.155 -0.94,2.097 -2.098,2.097l-5.849,0l0,3.751l5.849,0c1.155,0 2.098,0.942 2.098,2.098c0,1.16 -0.943,2.099 -2.098,2.099l-7.947,0c-1.155,0 -2.098,-0.939 -2.098,-2.099l0,-15.894Zm-2.816,15.891l0,0.001c0,0.906 -0.575,1.707 -1.435,1.992c-0.213,0.071 -0.441,0.108 -0.664,0.108c-0.657,0 -1.281,-0.312 -1.675,-0.842l-8.147,-11.088l0,9.832c0,1.16 -0.94,2.099 -2.098,2.099c-1.156,0 -2.098,-0.939 -2.098,-2.099l0,-15.897c0,-0.903 0.577,-1.702 1.435,-1.99c0.215,-0.071 0.439,-0.109 0.665,-0.109c0.653,0 1.282,0.314 1.674,0.842l8.146,11.095l0,-9.838c0,-1.155 0.941,-2.099 2.098,-2.099c1.157,0 2.096,0.943 2.096,2.099l0,15.894l0.003,0Zm-27.353,2.1l-7.948,0c-1.154,0 -2.095,-0.938 -2.095,-2.099l0,-15.895c0,-1.155 0.941,-2.099 2.095,-2.099c1.157,0 2.097,0.943 2.097,2.099l0,13.797l5.851,0c1.158,0 2.097,0.941 2.097,2.097c0,1.16 -0.939,2.1 -2.097,2.1Zm8.219,-2.099c0,1.161 -0.94,2.099 -2.096,2.099c-1.155,0 -2.096,-0.938 -2.096,-2.099l0,-15.895c0,-1.155 0.939,-2.099 2.096,-2.099c1.157,0 2.096,0.943 2.096,2.099l0,15.895Z" style="stroke-width:0;"/>
        </symbol>
        <symbol id="delete" width="100%" height="100%" viewBox="0 0 100 100" style="fill-rule:evenodd;clip-rule:evenodd;stroke-miterlimit:2;">
            <path d="M86.27,25.709c0,-3.692 -2.993,-6.684 -6.684,-6.684c-13.812,0 -45.36,0 -59.172,0c-3.691,0 -6.684,2.992 -6.684,6.684c0,0 0,0 0,0.001c0,3.691 2.993,6.684 6.684,6.684c13.812,0 45.36,0 59.172,0c3.691,0 6.684,-2.993 6.684,-6.684c0,-0.001 0,-0.001 0,-0.001Z" style="fill:none;"/>
            <path d="M39.095,19.025c0,-5.953 4.833,-10.786 10.786,-10.786c5.953,0 10.786,4.833 10.786,10.786" style="fill:none;"/>
            <path d="M21.436,41.39l0,39.755c0,2.79 1.109,5.466 3.082,7.44c1.973,1.973 4.649,3.081 7.439,3.081l36.073,0c2.794,0 5.473,-1.11 7.449,-3.085c1.975,-1.976 3.085,-4.655 3.085,-7.449c0,-14.742 0,-39.742 0,-39.742" style="fill:none;stroke-linecap:round;stroke-linejoin:round;"/>
            <path d="M34.521,44.213l0,37.047" style="fill:none;stroke-linecap:round;stroke-linejoin:round;"/>
            <path d="M49.938,44.213l0,37.047" style="fill:none;stroke-linecap:round;stroke-linejoin:round;"/>
            <path d="M65.336,44.213l0,37.047" style="fill:none;stroke-linecap:round;stroke-linejoin:round;"/>
        </symbol>
        <symbol id="avatar" width="100%" height="100%" viewBox="0 0 100 100" style="fill-rule:evenodd;clip-rule:evenodd;stroke-linejoin:round;stroke-miterlimit:2;">
            <path d="M49.987,91.65c-22.965,0 -41.65,-18.685 -41.65,-41.65c0,-22.965 18.685,-41.65 41.65,-41.65c22.965,0 41.65,18.685 41.65,41.65c0,22.965 -18.685,41.65 -41.65,41.65Zm-7.585,-38.406c-2.035,-1.771 -3.321,-4.38 -3.321,-7.289l0,-6.036c0,-5.334 4.324,-9.658 9.657,-9.658l2.415,0c5.334,0 9.658,4.324 9.658,9.658l0,6.036c0,2.914 -1.291,5.526 -3.331,7.297l0,6.55l9.744,3.613c1.08,0.4 1.182,1.907 0.161,2.434c-14.573,7.535 -28.969,2.288 -34.757,-0.484c-1.058,-0.507 -0.979,-2.038 0.122,-2.446l9.652,-3.578l0,-6.097Z" style="stroke-width:0;"/>
            <path d="M49.987,91.65c-22.965,0 -41.65,-18.685 -41.65,-41.65c0,-22.965 18.685,-41.65 41.65,-41.65c22.965,0 41.65,18.685 41.65,41.65c0,22.965 -18.685,41.65 -41.65,41.65Z" style="fill:none;"/>
            <path d="M42.402,53.244l0,6.097l-9.652,3.578c-1.101,0.408 -1.18,1.939 -0.122,2.446c5.788,2.772 20.184,8.019 34.757,0.484c1.021,-0.527 0.919,-2.034 -0.161,-2.434l-9.744,-3.613l0,-6.55" style="fill:none;stroke-linecap:round;"/>
            <path d="M51.153,55.613l-2.415,0c-5.333,0 -9.657,-4.324 -9.657,-9.658l0,-6.036c0,-5.334 4.324,-9.658 9.657,-9.658l2.415,0c5.334,0 9.658,4.324 9.658,9.658l0,6.036c0,5.334 -4.324,9.658 -9.658,9.658Z" style="fill:none;stroke-linecap:round;"/>
        </symbol>
        <symbol id="hc-avatar" width="100%" height="100%" viewBox="0 0 100 100" style="fill-rule:evenodd;clip-rule:evenodd;stroke-linecap:round;stroke-linejoin:round;stroke-miterlimit:2;">
            <path d="M70.274,57.043c-0.278,1.79 -0.735,3.237 -1.375,4.341c-0.426,0.713 -2.067,1.353 -4.922,1.918c-3.111,0.606 -6.691,0.908 -10.739,0.908c-6.692,0 -12.263,-1.258 -16.717,-3.775c-4.518,-2.558 -6.775,-5.836 -6.775,-9.833c0,-4.079 2.333,-7.472 6.999,-10.178c4.496,-2.611 9.929,-3.917 16.301,-3.917c4.517,0 8.31,0.343 11.379,1.03c2.727,0.606 4.143,1.171 4.251,1.696c0.234,1.023 0.351,2.686 0.351,4.988c0,0.377 -0.543,0.599 -1.63,0.665c-0.831,0.055 -1.342,-0.107 -1.534,-0.484c-1.13,-2.301 -2.637,-3.897 -4.523,-4.785c-1.886,-0.889 -4.714,-1.333 -8.486,-1.333c-4.73,0 -8.588,0.99 -11.57,2.968c-3.24,2.154 -4.859,5.102 -4.859,8.844c0,3.716 1.705,6.718 5.114,9.007c3.325,2.247 7.576,3.371 12.753,3.371c3.367,0 6.02,-0.457 7.959,-1.373c1.854,-0.875 3.366,-2.309 4.539,-4.3c0.341,-0.58 1.107,-0.788 2.301,-0.627c0.852,0.122 1.247,0.411 1.183,0.869" style="fill-opacity:0.8;fill-rule:nonzero;stroke-width:0;"/>
            <path d="M45.388,50.148c-2.279,0 -2.527,0.298 -2.527,2.775l0,6.044c0,2.626 0.198,3.617 1.04,4.757c0.793,1.09 2.18,1.733 3.666,1.684c0.644,0 0.892,0.149 0.892,0.644c0,0.545 -0.347,0.743 -1.238,0.743c-0.249,0 -0.793,-0.049 -1.734,-0.148c-1.536,-0.148 -4.113,-0.347 -5.104,-0.347c-0.892,0 -2.377,0.099 -5.746,0.446l-0.298,0c-0.446,0 -0.743,-0.347 -0.743,-0.842c0,-0.347 0.149,-0.496 0.594,-0.545c1.388,-0.199 2.577,-1.338 2.924,-2.775c0.148,-0.545 0.148,-0.743 0.198,-3.765l0,-19.273c0,-2.081 -0.198,-2.675 -1.041,-3.517c-0.743,-0.793 -0.99,-0.843 -3.468,-1.387c-0.544,-0.1 -0.693,-0.249 -0.693,-0.595c0,-0.545 0.247,-0.793 0.792,-0.793c0.248,0 0.942,0.049 1.586,0.149c1.139,0.198 3.171,0.297 4.855,0.297c0.446,0 0.446,0 3.567,-0.297c0.397,-0.05 2.577,-0.198 2.725,-0.198c0.496,0 0.793,0.248 0.793,0.644c0,0.396 -0.198,0.594 -0.694,0.693c-2.13,0.347 -2.873,1.338 -2.873,3.617l0,6.243c0,2.279 0,2.328 0.297,2.725c0.297,0.446 0.892,0.594 2.378,0.594l11.296,0c1.932,0 2.13,-0.346 2.13,-3.914l0,-4.261c0,-2.081 -0.198,-2.675 -1.04,-3.517c-0.793,-0.793 -1.09,-0.892 -3.468,-1.338c-0.545,-0.099 -0.694,-0.248 -0.694,-0.644c0,-0.545 0.248,-0.793 0.793,-0.793c0.248,0 0.941,0.049 1.585,0.149c1.239,0.198 3.122,0.297 5.104,0.297c0.247,0 1.535,-0.099 3.319,-0.297c0.892,-0.05 2.279,-0.149 2.675,-0.149c0.595,0 0.842,0.199 0.842,0.644c0,0.396 -0.198,0.595 -0.693,0.694c-2.13,0.346 -2.874,1.288 -2.874,3.567l0,20.808c0,2.626 0.198,3.667 1.041,4.757c0.793,1.139 2.081,1.733 3.666,1.684c0.644,0 0.892,0.149 0.892,0.644c0,0.545 -0.347,0.743 -1.239,0.743c-0.247,0 -0.793,-0.049 -1.734,-0.148c-1.486,-0.148 -4.112,-0.347 -5.103,-0.347c-0.891,0 -2.378,0.099 -5.747,0.446l-0.297,0c-0.446,0 -0.743,-0.347 -0.743,-0.842c0,-0.347 0.148,-0.496 0.594,-0.545c1.387,-0.199 2.576,-1.338 2.923,-2.775c0.149,-0.545 0.149,-0.743 0.198,-3.765l0,-5.302c0,-3.171 -0.149,-3.369 -2.13,-3.369l-11.444,0Z" style="fill-opacity:0.95;fill-rule:nonzero;stroke-width:0;"/>
            <path d="M56.832,47.721c1.092,0 1.63,-0.112 1.891,-0.852l0.959,0.033c0,0 1.581,0.027 1.581,-1.32c0,-1.348 0.069,-7.961 0.069,-7.961c0,0 -0.206,-3.657 -4.097,-3.231c0,0 -1.877,0.019 -3.43,-0.069c-0.029,-0.076 -0.045,-0.163 -0.045,-0.274c0,-0.546 0.248,-0.793 0.793,-0.793c0.226,0 0.824,0.042 1.417,0.125c0.295,0.449 1.234,1.104 4.235,0.928c4.468,-0.261 3.918,-0.398 3.918,-0.398c0,0 1.334,-0.248 1.458,0.591c0.123,0.838 -1.087,0.838 -1.087,0.838c0,0 -2.117,0.468 -2.406,2.778l-0.027,18.947l0.014,3.987c0,0 0.151,5.142 3.616,4.441c0,0 2.873,-0.018 4.386,0.352c0.015,0.065 0.033,0.126 0.033,0.209c0,0.545 -0.347,0.743 -1.239,0.743c-0.17,0 -0.494,-0.025 -0.978,-0.072c-0.341,-0.374 -1.243,-0.859 -3.632,-1.012c-4.07,-0.261 -5.17,0.193 -5.17,0.193c0,0 -1.471,0.343 -1.471,-0.715c0,-1.059 1.113,-0.77 1.113,-0.77c0,0 2.365,-0.331 2.613,-3.369l-0.041,-10.037c0,0 0.481,-1.911 -1.994,-1.691l-12.443,-0.055c0,0 -1.049,0.215 -1.41,0.882l-0.07,0c-1.455,0 -2.08,0.123 -2.343,0.854l-0.002,-0.001c0,0 -2.349,-0.498 -2.445,1.482l0.041,9.377c0,0 0.412,3.534 2.365,3.617l5.431,0.421c0.008,0.051 0.024,0.092 0.024,0.153c0,0.545 -0.347,0.743 -1.239,0.743c-0.18,0 -0.523,-0.026 -1.054,-0.079c-0.095,-0.228 -0.36,-0.579 -1.114,-0.579c-1.113,0 -2.158,-0.357 -2.351,-0.55c-0.192,-0.192 -4.193,0.069 -4.991,0.344c-0.797,0.275 -1.691,-0.302 -1.691,-0.591c0,-0.288 0.138,-0.715 1.072,-0.908c0.935,-0.192 2.407,-0.893 2.626,-2.901l-0.013,-12.209l-0.014,-12.031c0,0 0.007,-2.348 -2.269,-2.918c0,0 4.098,-0.231 5.679,-0.423c0,0 0.747,-0.192 0.962,0.423c0.217,0.615 -0.426,0.938 -0.879,0.938c0,0 -2.228,0.605 -2.544,2.282l0,9.543c0,0 -0.206,1.182 1.76,1.375l12.498,0c0.002,-0.001 1.008,-0.075 1.583,-0.79l0.352,0Zm-19.933,-13.4c0,0 -1.308,-0.172 -2.562,-0.94c-0.599,-0.084 -1.206,-0.126 -1.434,-0.126c-0.541,0 -0.788,0.245 -0.792,0.781c1.055,0.193 2.919,0.449 4.788,0.285Z" style="fill-rule:nonzero;stroke-width:0;"/>
            <ellipse cx="50" cy="49.987" rx="41.65" ry="41.65" style="fill:none;"/>
        </symbol>
        <symbol id="list" width="100%" height="100%" viewBox="0 0 100 100" style="fill-rule:evenodd;clip-rule:evenodd;stroke-linejoin:round;stroke-miterlimit:2;">
            <rect x="9.527" y="9.54" width="80.92" height="80.92" style="fill: currentColor;stroke-width:0;"/>
            <path d="M91.637,8.35l-83.3,0l0,83.3l83.3,0l0,-83.3Zm-2.38,80.92l-78.54,0l0,-78.54l78.54,0l0,78.54Z" style="fill-rule:nonzero;stroke-width:0;"/>
            <path d="M79.737,79.502l-59.5,0l0,-7.14l59.5,0l0,7.14Zm0,-13.028l-59.5,0l0,-7.14l59.5,0l0,7.14Zm0,-13.028l-59.5,0l0,-7.14l59.5,0l0,7.14Zm0,-13.028l-59.5,0l0,-7.14l59.5,0l0,7.14Zm0,-13.028l-59.5,0l0,-7.14l59.5,0l0,7.14Z" style="stroke-width:0;"/>
        </symbol>
        <symbol id="grid" width="100%" height="100%" viewBox="0 0 100 100" style="fill-rule:evenodd;clip-rule:evenodd;stroke-linejoin:round;stroke-miterlimit:2;">
            <rect x="9.553" y="9.54" width="80.92" height="80.92" style="fill: currentColor;stroke-width:0;"/>
            <path d="M91.663,8.35l-83.3,0l0,83.3l83.3,0l0,-83.3Zm-2.38,80.92l-78.54,0l0,-78.54l78.54,0l0,78.54Z" style="fill-rule:nonzero;stroke-width:0;"/>
            <path d="M36.178,79.502l-15.915,0l0,-26.811l15.915,0l0,26.811Zm21.791,0l-15.915,0l0,-26.811l15.915,0l0,26.811Zm21.794,0l-15.915,0l0,-26.811l15.915,0l0,26.811Zm-43.585,-32.442l-15.915,0l0,-26.81l15.915,0l0,26.81Zm21.791,0l-15.915,0l0,-26.81l15.915,0l0,26.81Zm21.794,0l-15.915,0l0,-26.81l15.915,0l0,26.81Z" style="fill-rule:nonzero;stroke-width:0;"/>
        </symbol>
        <symbol id="up" width="100%" height="100%" viewBox="0 0 100 100" style="fill-rule:evenodd;clip-rule:evenodd;stroke-linecap:round;stroke-linejoin:round;stroke-miterlimit:1.5;">
            <path d="M87.499,66.504l-37.499,-37.515l-37.499,37.515" style="fill:none;"/>
        </symbol>
        <symbol id="warning" width="100%" height="100%" viewBox="0 0 100 100" style="fill-rule:evenodd;clip-rule:evenodd;stroke-linejoin:round;stroke-miterlimit:2;">
            <path d="M46.461,9.529l-40.907,70.855c-1.572,2.724 0.393,6.129 3.537,6.129l81.818,0c3.145,0 5.112,-3.405 3.537,-6.129l-40.907,-70.855c-1.572,-2.724 -5.504,-2.724 -7.078,0" style="fill:#f3c91f;fill-rule:nonzero;"/>
            <path d="M46.233,58.484l-1.096,-16.405c-0.206,-3.197 -0.309,-5.492 -0.309,-6.885c0,-1.895 0.497,-3.373 1.49,-4.435c0.993,-1.061 2.301,-1.592 3.922,-1.592c1.963,0 3.276,0.679 3.938,2.037c0.663,1.359 0.994,3.317 0.994,5.874c0,1.507 -0.08,3.037 -0.24,4.59l-1.473,16.884c-0.16,2.01 -0.502,3.551 -1.027,4.624c-0.525,1.073 -1.393,1.61 -2.603,1.61c-1.233,0 -2.089,-0.52 -2.569,-1.559c-0.479,-1.038 -0.822,-2.62 -1.027,-4.743Zm3.801,22.536c-1.393,0 -2.608,-0.451 -3.647,-1.353c-1.039,-0.902 -1.559,-2.163 -1.559,-3.785c0,-1.415 0.497,-2.62 1.49,-3.613c0.993,-0.993 2.209,-1.49 3.648,-1.49c1.438,0 2.665,0.497 3.682,1.49c1.016,0.993 1.524,2.198 1.524,3.613c0,1.599 -0.514,2.855 -1.542,3.768c-1.027,0.913 -2.226,1.37 -3.596,1.37Z" style="fill-rule:nonzero;"/>
        </symbol>
        <symbol id="confirm" width="100%" height="100%" viewBox="0 0 100 100" style="fill-rule:evenodd;clip-rule:evenodd;stroke-miterlimit:10;">
            <path d="M19.538,29.358l0.041,-3.689" style="fill:none;"/>
            <path d="M13.636,9.5c3.343,0 6.054,2.711 6.054,6.054l-12.108,0c0,-3.343 2.711,-6.054 6.054,-6.054c3.343,0 6.054,2.711 6.054,6.054" style="fill:none;"/>
            <path d="M13.635,9.501l55.827,0c3.34,0 6.05,2.711 6.05,6.054l0,12.411" style="fill:none;"/>
            <path d="M74.814,71.628l0,12.703" style="fill:none;"/>
            <path d="M86.919,49.566c0,-14.437 -11.719,-26.158 -26.155,-26.158c-14.435,0 -26.154,11.721 -26.154,26.158c0,14.437 11.719,26.158 26.154,26.158c14.436,0 26.155,-11.721 26.155,-26.158Z" style="fill:none;stroke-linecap:round;"/>
            <path d="M26.048,90.5l54.821,0c3.34,0 6.05,-2.71 6.05,-6.053l-55.824,0c0,3.343 -2.71,6.053 -6.053,6.053c-3.344,0 -6.054,-2.71 -6.054,-6.053l0.53,-51.974" style="fill:none;stroke-linejoin:round;"/>
            <path d="M56.944,58.081c0.029,0.062 0.079,0.101 0.15,0.117c0.071,0.016 0.121,-0.008 0.15,-0.07c4.39,-8.031 9.451,-15.735 15.182,-23.11c0.456,-0.593 1.04,-0.906 1.753,-0.937c0.057,-0.031 0.114,-0.047 0.171,-0.047c0.599,0 1.14,0.234 1.625,0.703l0.214,0.235c0.57,0.562 0.855,1.265 0.855,2.109c0,0.687 -0.214,1.297 -0.641,1.828c-5.731,7.375 -10.791,15.125 -15.182,23.25c-0.399,0.75 -0.941,1.336 -1.625,1.758c-0.684,0.422 -1.411,0.633 -2.181,0.633l-1.069,0c-0.77,0 -1.476,-0.227 -2.117,-0.68c-0.642,-0.453 -1.133,-1.07 -1.476,-1.852l-4.747,-11.25c-0.171,-0.406 -0.256,-0.796 -0.256,-1.171c0,-0.313 0.057,-0.641 0.171,-0.985c0.228,-0.719 0.67,-1.234 1.326,-1.547l0.256,-0.14c0.371,-0.188 0.727,-0.282 1.069,-0.282c0.285,0 0.571,0.063 0.856,0.188c0.655,0.25 1.126,0.734 1.411,1.453l4.105,9.797Z" style="fill:none;stroke-miterlimit:2;"/>
        </symbol>
        <symbol id="new-prod" width="100%" height="100%" viewBox="0 0 100 100"  style="fill-rule:evenodd;clip-rule:evenodd;stroke-linejoin:round;stroke-miterlimit:2;">
            <path d="M0.001,99.999l0,-51.409l48.589,-48.589l51.409,0l-99.998,99.998Z"/>
            <path d="M15.137,55.359l6.691,6.691l0.799,-0.799c0.532,-0.532 1.014,-0.809 1.446,-0.831c0.432,-0.021 0.813,0.134 1.144,0.465c0.324,0.323 0.475,0.701 0.453,1.133c-0.021,0.431 -0.298,0.913 -0.831,1.446l-2.903,2.903c-0.532,0.532 -1.014,0.809 -1.446,0.831c-0.432,0.021 -0.813,-0.133 -1.144,-0.464c-0.316,-0.317 -0.468,-0.691 -0.453,-1.123c0.014,-0.431 0.255,-0.881 0.723,-1.349l-8.655,-8.655l-0.346,0.346c-0.532,0.532 -1.014,0.809 -1.446,0.831c-0.431,0.021 -0.813,-0.134 -1.144,-0.464c-0.331,-0.331 -0.485,-0.713 -0.464,-1.144c0.022,-0.432 0.299,-0.914 0.831,-1.447l2.569,-2.546l14.526,3.216l-6.659,-6.659l-0.799,0.798c-0.532,0.533 -1.014,0.81 -1.446,0.831c-0.431,0.022 -0.813,-0.133 -1.144,-0.464c-0.331,-0.331 -0.485,-0.712 -0.464,-1.144c0.022,-0.431 0.299,-0.913 0.831,-1.446l2.914,-2.892c0.533,-0.532 1.013,-0.811 1.441,-0.836c0.428,-0.025 0.808,0.127 1.138,0.458c0.324,0.324 0.479,0.702 0.465,1.134c-0.015,0.431 -0.252,0.877 -0.713,1.338l10.868,10.867l-2.191,2.191l-14.591,-3.216Zm17.203,-10.317l3.248,3.248l5.644,-5.644l-1.198,-1.198c-0.532,-0.532 -0.809,-1.014 -0.831,-1.446c-0.021,-0.432 0.134,-0.813 0.464,-1.144c0.324,-0.324 0.702,-0.475 1.134,-0.453c0.431,0.021 0.913,0.298 1.446,0.831l3.41,3.41l-10.414,10.414c-0.533,0.533 -1.015,0.81 -1.446,0.831c-0.432,0.022 -0.813,-0.133 -1.144,-0.464c-0.324,-0.324 -0.473,-0.703 -0.448,-1.138c0.025,-0.436 0.3,-0.916 0.825,-1.441l0.346,-0.345l-8.655,-8.656l-0.346,0.346c-0.532,0.532 -1.014,0.809 -1.446,0.831c-0.432,0.021 -0.813,-0.133 -1.144,-0.464c-0.331,-0.331 -0.486,-0.713 -0.464,-1.144c0.022,-0.432 0.299,-0.914 0.831,-1.446l9.939,-9.918l3.368,3.367c0.525,0.525 0.8,1.002 0.825,1.43c0.025,0.428 -0.128,0.807 -0.458,1.138c-0.331,0.331 -0.711,0.488 -1.139,0.47c-0.428,-0.018 -0.908,-0.293 -1.441,-0.826l-1.155,-1.154l-5.158,5.158l3.194,3.195l1.943,-1.943c-0.576,-0.576 -0.892,-1 -0.95,-1.274c-0.129,-0.575 0.011,-1.068 0.421,-1.478c0.324,-0.324 0.702,-0.475 1.133,-0.453c0.432,0.021 0.914,0.298 1.446,0.831l2.547,2.547c0.482,0.482 0.749,0.863 0.799,1.144c0.108,0.568 -0.032,1.046 -0.421,1.435c-0.41,0.41 -0.903,0.55 -1.479,0.421c-0.273,-0.058 -0.701,-0.378 -1.284,-0.961l-1.942,1.943Zm14.72,-16.361l4.23,8.332l-2.482,2.482l-12.184,-9.551c-0.381,0.295 -0.754,0.433 -1.117,0.415c-0.363,-0.018 -0.692,-0.174 -0.987,-0.469c-0.346,-0.345 -0.509,-0.736 -0.491,-1.171c0.018,-0.435 0.293,-0.919 0.825,-1.452l2.957,-2.935c0.533,-0.532 1.013,-0.811 1.441,-0.836c0.428,-0.026 0.808,0.127 1.139,0.458c0.33,0.331 0.485,0.713 0.464,1.144c-0.022,0.432 -0.299,0.914 -0.831,1.446l-1.155,1.155l6.918,5.45l-3.411,-6.885l2.299,-2.299l6.874,3.421l-5.45,-6.918l-1.154,1.155c-0.533,0.533 -1.015,0.81 -1.446,0.831c-0.432,0.022 -0.813,-0.133 -1.144,-0.464c-0.331,-0.331 -0.486,-0.712 -0.464,-1.144c0.021,-0.431 0.298,-0.914 0.831,-1.446l2.946,-2.925c0.532,-0.532 1.012,-0.811 1.441,-0.836c0.428,-0.025 0.807,0.128 1.138,0.459c0.281,0.28 0.432,0.611 0.453,0.993c0.022,0.381 -0.108,0.769 -0.388,1.165l9.594,12.141l-2.439,2.439l-8.407,-4.155Zm20.019,-9.076c0.317,0.317 0.466,0.703 0.448,1.16c-0.018,0.457 -0.236,0.894 -0.653,1.311c-0.417,0.418 -0.854,0.635 -1.311,0.653c-0.457,0.018 -0.844,-0.131 -1.16,-0.447c-0.31,-0.31 -0.457,-0.691 -0.443,-1.144c0.015,-0.454 0.234,-0.893 0.659,-1.317c0.424,-0.425 0.861,-0.646 1.311,-0.664c0.449,-0.018 0.833,0.132 1.149,0.448Zm-10.63,-11.342l6.054,7.284c0.317,0.374 0.47,0.758 0.459,1.15c-0.011,0.392 -0.167,0.739 -0.469,1.041c-0.303,0.302 -0.65,0.459 -1.042,0.47c-0.392,0.01 -0.775,-0.143 -1.149,-0.459l-7.296,-6.044c-0.367,-0.309 -0.604,-0.518 -0.712,-0.626c-0.561,-0.561 -0.843,-1.181 -0.847,-1.861c-0.004,-0.68 0.246,-1.272 0.75,-1.775c0.496,-0.497 1.088,-0.743 1.775,-0.74c0.687,0.004 1.293,0.268 1.819,0.793c0.108,0.108 0.327,0.364 0.658,0.767Z" style="fill:#fff;fill-rule:nonzero;"/>
        </symbol>
    </defs>
</svg>
