<?xml version="1.0" encoding="UTF-8" standalone="no"?>
<!DOCTYPE svg PUBLIC "-//W3C//DTD SVG 1.1//EN" "http://www.w3.org/Graphics/SVG/1.1/DTD/svg11.dtd">
<svg width="100%" height="100%" viewBox="0 0 200 200" version="1.1" xmlns="http://www.w3.org/2000/svg" xmlns:xlink="http://www.w3.org/1999/xlink" xml:space="preserve" xmlns:serif="http://www.serif.com/" style="fill-rule:evenodd;clip-rule:evenodd;stroke-linecap:round;stroke-linejoin:round;stroke-miterlimit:1.41421;">
    <g id="FMBS-Line-QR">
        <rect x="0" y="0" width="200" height="200" style="fill:#fff;"/>
        <g id="code">
            <rect x="17.5" y="17.5" width="5" height="5"/>
            <rect x="22.5" y="17.5" width="5" height="5"/>
            <rect x="27.5" y="17.5" width="5" height="5"/>
            <rect x="32.5" y="17.5" width="5" height="5"/>
            <rect x="37.5" y="17.5" width="5" height="5"/>
            <rect x="42.5" y="17.5" width="5" height="5"/>
            <rect x="47.5" y="17.5" width="5" height="5"/>
            <rect x="57.5" y="17.5" width="5" height="5"/>
            <rect x="82.5" y="17.5" width="5" height="5"/>
            <rect x="87.5" y="17.5" width="5" height="5"/>
            <rect x="92.5" y="17.5" width="5" height="5"/>
            <rect x="97.5" y="17.5" width="5" height="5"/>
            <rect x="102.5" y="17.5" width="5" height="5"/>
            <rect x="107.5" y="17.5" width="5" height="5"/>
            <rect x="132.5" y="17.5" width="5" height="5"/>
            <rect x="137.5" y="17.5" width="5" height="5"/>
            <rect x="147.5" y="17.5" width="5" height="5"/>
            <rect x="152.5" y="17.5" width="5" height="5"/>
            <rect x="157.5" y="17.5" width="5" height="5"/>
            <rect x="162.5" y="17.5" width="5" height="5"/>
            <rect x="167.5" y="17.5" width="5" height="5"/>
            <rect x="172.5" y="17.5" width="5" height="5"/>
            <rect x="177.5" y="17.5" width="5" height="5"/>
            <rect x="17.5" y="22.5" width="5" height="5"/>
            <rect x="47.5" y="22.5" width="5" height="5"/>
            <rect x="57.5" y="22.5" width="5" height="5"/>
            <rect x="62.5" y="22.5" width="5" height="5"/>
            <rect x="92.5" y="22.5" width="5" height="5"/>
            <rect x="97.5" y="22.5" width="5" height="5"/>
            <rect x="112.5" y="22.5" width="5" height="5"/>
            <rect x="117.5" y="22.5" width="5" height="5"/>
            <rect x="127.5" y="22.5" width="5" height="5"/>
            <rect x="147.5" y="22.5" width="5" height="5"/>
            <rect x="177.5" y="22.5" width="5" height="5"/>
            <rect x="17.5" y="27.5" width="5" height="5"/>
            <rect x="27.5" y="27.5" width="5" height="5"/>
            <rect x="32.5" y="27.5" width="5" height="5"/>
            <rect x="37.5" y="27.5" width="5" height="5"/>
            <rect x="47.5" y="27.5" width="5" height="5"/>
            <rect x="57.5" y="27.5" width="5" height="5"/>
            <rect x="62.5" y="27.5" width="5" height="5"/>
            <rect x="67.5" y="27.5" width="5" height="5"/>
            <rect x="72.5" y="27.5" width="5" height="5"/>
            <rect x="77.5" y="27.5" width="5" height="5"/>
            <rect x="82.5" y="27.5" width="5" height="5"/>
            <rect x="87.5" y="27.5" width="5" height="5"/>
            <rect x="92.5" y="27.5" width="5" height="5"/>
            <rect x="97.5" y="27.5" width="5" height="5"/>
            <rect x="122.5" y="27.5" width="5" height="5"/>
            <rect x="127.5" y="27.5" width="5" height="5"/>
            <rect x="132.5" y="27.5" width="5" height="5"/>
            <rect x="147.5" y="27.5" width="5" height="5"/>
            <rect x="157.5" y="27.5" width="5" height="5"/>
            <rect x="162.5" y="27.5" width="5" height="5"/>
            <rect x="167.5" y="27.5" width="5" height="5"/>
            <rect x="177.5" y="27.5" width="5" height="5"/>
            <rect x="17.5" y="32.5" width="5" height="5"/>
            <rect x="27.5" y="32.5" width="5" height="5"/>
            <rect x="32.5" y="32.5" width="5" height="5"/>
            <rect x="37.5" y="32.5" width="5" height="5"/>
            <rect x="47.5" y="32.5" width="5" height="5"/>
            <rect x="77.5" y="32.5" width="5" height="5"/>
            <rect x="87.5" y="32.5" width="5" height="5"/>
            <rect x="92.5" y="32.5" width="5" height="5"/>
            <rect x="97.5" y="32.5" width="5" height="5"/>
            <rect x="102.5" y="32.5" width="5" height="5"/>
            <rect x="107.5" y="32.5" width="5" height="5"/>
            <rect x="127.5" y="32.5" width="5" height="5"/>
            <rect x="132.5" y="32.5" width="5" height="5"/>
            <rect x="147.5" y="32.5" width="5" height="5"/>
            <rect x="157.5" y="32.5" width="5" height="5"/>
            <rect x="162.5" y="32.5" width="5" height="5"/>
            <rect x="167.5" y="32.5" width="5" height="5"/>
            <rect x="177.5" y="32.5" width="5" height="5"/>
            <rect x="17.5" y="37.5" width="5" height="5"/>
            <rect x="27.5" y="37.5" width="5" height="5"/>
            <rect x="32.5" y="37.5" width="5" height="5"/>
            <rect x="37.5" y="37.5" width="5" height="5"/>
            <rect x="47.5" y="37.5" width="5" height="5"/>
            <rect x="62.5" y="37.5" width="5" height="5"/>
            <rect x="67.5" y="37.5" width="5" height="5"/>
            <rect x="72.5" y="37.5" width="5" height="5"/>
            <rect x="82.5" y="37.5" width="5" height="5"/>
            <rect x="97.5" y="37.5" width="5" height="5"/>
            <rect x="107.5" y="37.5" width="5" height="5"/>
            <rect x="117.5" y="37.5" width="5" height="5"/>
            <rect x="127.5" y="37.5" width="5" height="5"/>
            <rect x="137.5" y="37.5" width="5" height="5"/>
            <rect x="147.5" y="37.5" width="5" height="5"/>
            <rect x="157.5" y="37.5" width="5" height="5"/>
            <rect x="162.5" y="37.5" width="5" height="5"/>
            <rect x="167.5" y="37.5" width="5" height="5"/>
            <rect x="177.5" y="37.5" width="5" height="5"/>
            <rect x="17.5" y="42.5" width="5" height="5"/>
            <rect x="47.5" y="42.5" width="5" height="5"/>
            <rect x="57.5" y="42.5" width="5" height="5"/>
            <rect x="62.5" y="42.5" width="5" height="5"/>
            <rect x="72.5" y="42.5" width="5" height="5"/>
            <rect x="82.5" y="42.5" width="5" height="5"/>
            <rect x="102.5" y="42.5" width="5" height="5"/>
            <rect x="107.5" y="42.5" width="5" height="5"/>
            <rect x="112.5" y="42.5" width="5" height="5"/>
            <rect x="117.5" y="42.5" width="5" height="5"/>
            <rect x="122.5" y="42.5" width="5" height="5"/>
            <rect x="147.5" y="42.5" width="5" height="5"/>
            <rect x="177.5" y="42.5" width="5" height="5"/>
            <rect x="17.5" y="47.5" width="5" height="5"/>
            <rect x="22.5" y="47.5" width="5" height="5"/>
            <rect x="27.5" y="47.5" width="5" height="5"/>
            <rect x="32.5" y="47.5" width="5" height="5"/>
            <rect x="37.5" y="47.5" width="5" height="5"/>
            <rect x="42.5" y="47.5" width="5" height="5"/>
            <rect x="47.5" y="47.5" width="5" height="5"/>
            <rect x="57.5" y="47.5" width="5" height="5"/>
            <rect x="67.5" y="47.5" width="5" height="5"/>
            <rect x="77.5" y="47.5" width="5" height="5"/>
            <rect x="87.5" y="47.5" width="5" height="5"/>
            <rect x="97.5" y="47.5" width="5" height="5"/>
            <rect x="107.5" y="47.5" width="5" height="5"/>
            <rect x="117.5" y="47.5" width="5" height="5"/>
            <rect x="127.5" y="47.5" width="5" height="5"/>
            <rect x="137.5" y="47.5" width="5" height="5"/>
            <rect x="147.5" y="47.5" width="5" height="5"/>
            <rect x="152.5" y="47.5" width="5" height="5"/>
            <rect x="157.5" y="47.5" width="5" height="5"/>
            <rect x="162.5" y="47.5" width="5" height="5"/>
            <rect x="167.5" y="47.5" width="5" height="5"/>
            <rect x="172.5" y="47.5" width="5" height="5"/>
            <rect x="177.5" y="47.5" width="5" height="5"/>
            <rect x="57.5" y="52.5" width="5" height="5"/>
            <rect x="62.5" y="52.5" width="5" height="5"/>
            <rect x="72.5" y="52.5" width="5" height="5"/>
            <rect x="77.5" y="52.5" width="5" height="5"/>
            <rect x="87.5" y="52.5" width="5" height="5"/>
            <rect x="122.5" y="52.5" width="5" height="5"/>
            <rect x="127.5" y="52.5" width="5" height="5"/>
            <rect x="137.5" y="52.5" width="5" height="5"/>
            <rect x="27.5" y="57.5" width="5" height="5"/>
            <rect x="32.5" y="57.5" width="5" height="5"/>
            <rect x="37.5" y="57.5" width="5" height="5"/>
            <rect x="47.5" y="57.5" width="5" height="5"/>
            <rect x="57.5" y="57.5" width="5" height="5"/>
            <rect x="67.5" y="57.5" width="5" height="5"/>
            <rect x="77.5" y="57.5" width="5" height="5"/>
            <rect x="82.5" y="57.5" width="5" height="5"/>
            <rect x="87.5" y="57.5" width="5" height="5"/>
            <rect x="102.5" y="57.5" width="5" height="5"/>
            <rect x="117.5" y="57.5" width="5" height="5"/>
            <rect x="127.5" y="57.5" width="5" height="5"/>
            <rect x="137.5" y="57.5" width="5" height="5"/>
            <rect x="142.5" y="57.5" width="5" height="5"/>
            <rect x="147.5" y="57.5" width="5" height="5"/>
            <rect x="152.5" y="57.5" width="5" height="5"/>
            <rect x="167.5" y="57.5" width="5" height="5"/>
            <rect x="172.5" y="57.5" width="5" height="5"/>
            <rect x="177.5" y="57.5" width="5" height="5"/>
            <rect x="17.5" y="62.5" width="5" height="5"/>
            <rect x="27.5" y="62.5" width="5" height="5"/>
            <rect x="52.5" y="62.5" width="5" height="5"/>
            <rect x="57.5" y="62.5" width="5" height="5"/>
            <rect x="62.5" y="62.5" width="5" height="5"/>
            <rect x="82.5" y="62.5" width="5" height="5"/>
            <rect x="92.5" y="62.5" width="5" height="5"/>
            <rect x="102.5" y="62.5" width="5" height="5"/>
            <rect x="107.5" y="62.5" width="5" height="5"/>
            <rect x="117.5" y="62.5" width="5" height="5"/>
            <rect x="127.5" y="62.5" width="5" height="5"/>
            <rect x="132.5" y="62.5" width="5" height="5"/>
            <rect x="142.5" y="62.5" width="5" height="5"/>
            <rect x="147.5" y="62.5" width="5" height="5"/>
            <rect x="162.5" y="62.5" width="5" height="5"/>
            <rect x="177.5" y="62.5" width="5" height="5"/>
            <rect x="17.5" y="67.5" width="5" height="5"/>
            <rect x="27.5" y="67.5" width="5" height="5"/>
            <rect x="37.5" y="67.5" width="5" height="5"/>
            <rect x="47.5" y="67.5" width="5" height="5"/>
            <rect x="52.5" y="67.5" width="5" height="5"/>
            <rect x="57.5" y="67.5" width="5" height="5"/>
            <rect x="67.5" y="67.5" width="5" height="5"/>
            <rect x="87.5" y="67.5" width="5" height="5"/>
            <rect x="112.5" y="67.5" width="5" height="5"/>
            <rect x="127.5" y="67.5" width="5" height="5"/>
            <rect x="142.5" y="67.5" width="5" height="5"/>
            <rect x="147.5" y="67.5" width="5" height="5"/>
            <rect x="152.5" y="67.5" width="5" height="5"/>
            <rect x="162.5" y="67.5" width="5" height="5"/>
            <rect x="172.5" y="67.5" width="5" height="5"/>
            <rect x="22.5" y="72.5" width="5" height="5"/>
            <rect x="37.5" y="72.5" width="5" height="5"/>
            <rect x="42.5" y="72.5" width="5" height="5"/>
            <rect x="57.5" y="72.5" width="5" height="5"/>
            <rect x="67.5" y="72.5" width="5" height="5"/>
            <rect x="77.5" y="72.5" width="5" height="5"/>
            <rect x="97.5" y="72.5" width="5" height="5"/>
            <rect x="102.5" y="72.5" width="5" height="5"/>
            <rect x="132.5" y="72.5" width="5" height="5"/>
            <rect x="137.5" y="72.5" width="5" height="5"/>
            <rect x="147.5" y="72.5" width="5" height="5"/>
            <rect x="162.5" y="72.5" width="5" height="5"/>
            <rect x="167.5" y="72.5" width="5" height="5"/>
            <rect x="172.5" y="72.5" width="5" height="5"/>
            <rect x="22.5" y="77.5" width="5" height="5"/>
            <rect x="32.5" y="77.5" width="5" height="5"/>
            <rect x="37.5" y="77.5" width="5" height="5"/>
            <rect x="42.5" y="77.5" width="5" height="5"/>
            <rect x="47.5" y="77.5" width="5" height="5"/>
            <rect x="52.5" y="77.5" width="5" height="5"/>
            <rect x="77.5" y="77.5" width="5" height="5"/>
            <rect x="87.5" y="77.5" width="5" height="5"/>
            <rect x="92.5" y="77.5" width="5" height="5"/>
            <rect x="97.5" y="77.5" width="5" height="5"/>
            <rect x="102.5" y="77.5" width="5" height="5"/>
            <rect x="107.5" y="77.5" width="5" height="5"/>
            <rect x="112.5" y="77.5" width="5" height="5"/>
            <rect x="117.5" y="77.5" width="5" height="5"/>
            <rect x="122.5" y="77.5" width="5" height="5"/>
            <rect x="127.5" y="77.5" width="5" height="5"/>
            <rect x="132.5" y="77.5" width="5" height="5"/>
            <rect x="137.5" y="77.5" width="5" height="5"/>
            <rect x="142.5" y="77.5" width="5" height="5"/>
            <rect x="157.5" y="77.5" width="5" height="5"/>
            <rect x="162.5" y="77.5" width="5" height="5"/>
            <rect x="177.5" y="77.5" width="5" height="5"/>
            <rect x="17.5" y="82.5" width="5" height="5"/>
            <rect x="22.5" y="82.5" width="5" height="5"/>
            <rect x="27.5" y="82.5" width="5" height="5"/>
            <rect x="32.5" y="82.5" width="5" height="5"/>
            <rect x="37.5" y="82.5" width="5" height="5"/>
            <rect x="52.5" y="82.5" width="5" height="5"/>
            <rect x="62.5" y="82.5" width="5" height="5"/>
            <rect x="67.5" y="82.5" width="5" height="5"/>
            <rect x="72.5" y="82.5" width="5" height="5"/>
            <rect x="77.5" y="82.5" width="5" height="5"/>
            <rect x="82.5" y="82.5" width="5" height="5"/>
            <rect x="87.5" y="82.5" width="5" height="5"/>
            <rect x="92.5" y="82.5" width="5" height="5"/>
            <rect x="107.5" y="82.5" width="5" height="5"/>
            <rect x="112.5" y="82.5" width="5" height="5"/>
            <rect x="132.5" y="82.5" width="5" height="5"/>
            <rect x="137.5" y="82.5" width="5" height="5"/>
            <rect x="147.5" y="82.5" width="5" height="5"/>
            <rect x="162.5" y="82.5" width="5" height="5"/>
            <rect x="177.5" y="82.5" width="5" height="5"/>
            <rect x="17.5" y="87.5" width="5" height="5"/>
            <rect x="22.5" y="87.5" width="5" height="5"/>
            <rect x="27.5" y="87.5" width="5" height="5"/>
            <rect x="47.5" y="87.5" width="5" height="5"/>
            <rect x="52.5" y="87.5" width="5" height="5"/>
            <rect x="67.5" y="87.5" width="5" height="5"/>
            <rect x="82.5" y="87.5" width="5" height="5"/>
            <rect x="87.5" y="87.5" width="5" height="5"/>
            <rect x="92.5" y="87.5" width="5" height="5"/>
            <rect x="107.5" y="87.5" width="5" height="5"/>
            <rect x="127.5" y="87.5" width="5" height="5"/>
            <rect x="142.5" y="87.5" width="5" height="5"/>
            <rect x="147.5" y="87.5" width="5" height="5"/>
            <rect x="152.5" y="87.5" width="5" height="5"/>
            <rect x="157.5" y="87.5" width="5" height="5"/>
            <rect x="162.5" y="87.5" width="5" height="5"/>
            <rect x="172.5" y="87.5" width="5" height="5"/>
            <rect x="17.5" y="92.5" width="5" height="5"/>
            <rect x="32.5" y="92.5" width="5" height="5"/>
            <rect x="37.5" y="92.5" width="5" height="5"/>
            <rect x="42.5" y="92.5" width="5" height="5"/>
            <rect x="52.5" y="92.5" width="5" height="5"/>
            <rect x="57.5" y="92.5" width="5" height="5"/>
            <rect x="62.5" y="92.5" width="5" height="5"/>
            <rect x="67.5" y="92.5" width="5" height="5"/>
            <rect x="77.5" y="92.5" width="5" height="5"/>
            <rect x="92.5" y="92.5" width="5" height="5"/>
            <rect x="97.5" y="92.5" width="5" height="5"/>
            <rect x="102.5" y="92.5" width="5" height="5"/>
            <rect x="107.5" y="92.5" width="5" height="5"/>
            <rect x="112.5" y="92.5" width="5" height="5"/>
            <rect x="122.5" y="92.5" width="5" height="5"/>
            <rect x="127.5" y="92.5" width="5" height="5"/>
            <rect x="142.5" y="92.5" width="5" height="5"/>
            <rect x="147.5" y="92.5" width="5" height="5"/>
            <rect x="152.5" y="92.5" width="5" height="5"/>
            <rect x="162.5" y="92.5" width="5" height="5"/>
            <rect x="167.5" y="92.5" width="5" height="5"/>
            <rect x="177.5" y="92.5" width="5" height="5"/>
            <rect x="17.5" y="97.5" width="5" height="5"/>
            <rect x="22.5" y="97.5" width="5" height="5"/>
            <rect x="37.5" y="97.5" width="5" height="5"/>
            <rect x="42.5" y="97.5" width="5" height="5"/>
            <rect x="47.5" y="97.5" width="5" height="5"/>
            <rect x="67.5" y="97.5" width="5" height="5"/>
            <rect x="77.5" y="97.5" width="5" height="5"/>
            <rect x="87.5" y="97.5" width="5" height="5"/>
            <rect x="102.5" y="97.5" width="5" height="5"/>
            <rect x="107.5" y="97.5" width="5" height="5"/>
            <rect x="117.5" y="97.5" width="5" height="5"/>
            <rect x="127.5" y="97.5" width="5" height="5"/>
            <rect x="137.5" y="97.5" width="5" height="5"/>
            <rect x="142.5" y="97.5" width="5" height="5"/>
            <rect x="162.5" y="97.5" width="5" height="5"/>
            <rect x="167.5" y="97.5" width="5" height="5"/>
            <rect x="172.5" y="97.5" width="5" height="5"/>
            <rect x="177.5" y="97.5" width="5" height="5"/>
            <rect x="37.5" y="102.5" width="5" height="5"/>
            <rect x="57.5" y="102.5" width="5" height="5"/>
            <rect x="62.5" y="102.5" width="5" height="5"/>
            <rect x="67.5" y="102.5" width="5" height="5"/>
            <rect x="72.5" y="102.5" width="5" height="5"/>
            <rect x="77.5" y="102.5" width="5" height="5"/>
            <rect x="92.5" y="102.5" width="5" height="5"/>
            <rect x="97.5" y="102.5" width="5" height="5"/>
            <rect x="102.5" y="102.5" width="5" height="5"/>
            <rect x="112.5" y="102.5" width="5" height="5"/>
            <rect x="117.5" y="102.5" width="5" height="5"/>
            <rect x="122.5" y="102.5" width="5" height="5"/>
            <rect x="132.5" y="102.5" width="5" height="5"/>
            <rect x="137.5" y="102.5" width="5" height="5"/>
            <rect x="177.5" y="102.5" width="5" height="5"/>
            <rect x="17.5" y="107.5" width="5" height="5"/>
            <rect x="22.5" y="107.5" width="5" height="5"/>
            <rect x="42.5" y="107.5" width="5" height="5"/>
            <rect x="47.5" y="107.5" width="5" height="5"/>
            <rect x="67.5" y="107.5" width="5" height="5"/>
            <rect x="72.5" y="107.5" width="5" height="5"/>
            <rect x="77.5" y="107.5" width="5" height="5"/>
            <rect x="82.5" y="107.5" width="5" height="5"/>
            <rect x="87.5" y="107.5" width="5" height="5"/>
            <rect x="92.5" y="107.5" width="5" height="5"/>
            <rect x="97.5" y="107.5" width="5" height="5"/>
            <rect x="102.5" y="107.5" width="5" height="5"/>
            <rect x="112.5" y="107.5" width="5" height="5"/>
            <rect x="117.5" y="107.5" width="5" height="5"/>
            <rect x="122.5" y="107.5" width="5" height="5"/>
            <rect x="127.5" y="107.5" width="5" height="5"/>
            <rect x="137.5" y="107.5" width="5" height="5"/>
            <rect x="142.5" y="107.5" width="5" height="5"/>
            <rect x="157.5" y="107.5" width="5" height="5"/>
            <rect x="167.5" y="107.5" width="5" height="5"/>
            <rect x="172.5" y="107.5" width="5" height="5"/>
            <rect x="27.5" y="112.5" width="5" height="5"/>
            <rect x="37.5" y="112.5" width="5" height="5"/>
            <rect x="52.5" y="112.5" width="5" height="5"/>
            <rect x="57.5" y="112.5" width="5" height="5"/>
            <rect x="107.5" y="112.5" width="5" height="5"/>
            <rect x="112.5" y="112.5" width="5" height="5"/>
            <rect x="122.5" y="112.5" width="5" height="5"/>
            <rect x="132.5" y="112.5" width="5" height="5"/>
            <rect x="137.5" y="112.5" width="5" height="5"/>
            <rect x="142.5" y="112.5" width="5" height="5"/>
            <rect x="147.5" y="112.5" width="5" height="5"/>
            <rect x="157.5" y="112.5" width="5" height="5"/>
            <rect x="162.5" y="112.5" width="5" height="5"/>
            <rect x="167.5" y="112.5" width="5" height="5"/>
            <rect x="17.5" y="117.5" width="5" height="5"/>
            <rect x="22.5" y="117.5" width="5" height="5"/>
            <rect x="27.5" y="117.5" width="5" height="5"/>
            <rect x="32.5" y="117.5" width="5" height="5"/>
            <rect x="47.5" y="117.5" width="5" height="5"/>
            <rect x="52.5" y="117.5" width="5" height="5"/>
            <rect x="57.5" y="117.5" width="5" height="5"/>
            <rect x="62.5" y="117.5" width="5" height="5"/>
            <rect x="67.5" y="117.5" width="5" height="5"/>
            <rect x="82.5" y="117.5" width="5" height="5"/>
            <rect x="102.5" y="117.5" width="5" height="5"/>
            <rect x="107.5" y="117.5" width="5" height="5"/>
            <rect x="112.5" y="117.5" width="5" height="5"/>
            <rect x="127.5" y="117.5" width="5" height="5"/>
            <rect x="132.5" y="117.5" width="5" height="5"/>
            <rect x="137.5" y="117.5" width="5" height="5"/>
            <rect x="152.5" y="117.5" width="5" height="5"/>
            <rect x="157.5" y="117.5" width="5" height="5"/>
            <rect x="162.5" y="117.5" width="5" height="5"/>
            <rect x="17.5" y="122.5" width="5" height="5"/>
            <rect x="22.5" y="122.5" width="5" height="5"/>
            <rect x="37.5" y="122.5" width="5" height="5"/>
            <rect x="52.5" y="122.5" width="5" height="5"/>
            <rect x="57.5" y="122.5" width="5" height="5"/>
            <rect x="62.5" y="122.5" width="5" height="5"/>
            <rect x="67.5" y="122.5" width="5" height="5"/>
            <rect x="72.5" y="122.5" width="5" height="5"/>
            <rect x="77.5" y="122.5" width="5" height="5"/>
            <rect x="92.5" y="122.5" width="5" height="5"/>
            <rect x="102.5" y="122.5" width="5" height="5"/>
            <rect x="107.5" y="122.5" width="5" height="5"/>
            <rect x="122.5" y="122.5" width="5" height="5"/>
            <rect x="152.5" y="122.5" width="5" height="5"/>
            <rect x="162.5" y="122.5" width="5" height="5"/>
            <rect x="177.5" y="122.5" width="5" height="5"/>
            <rect x="17.5" y="127.5" width="5" height="5"/>
            <rect x="32.5" y="127.5" width="5" height="5"/>
            <rect x="37.5" y="127.5" width="5" height="5"/>
            <rect x="47.5" y="127.5" width="5" height="5"/>
            <rect x="52.5" y="127.5" width="5" height="5"/>
            <rect x="62.5" y="127.5" width="5" height="5"/>
            <rect x="67.5" y="127.5" width="5" height="5"/>
            <rect x="72.5" y="127.5" width="5" height="5"/>
            <rect x="77.5" y="127.5" width="5" height="5"/>
            <rect x="87.5" y="127.5" width="5" height="5"/>
            <rect x="92.5" y="127.5" width="5" height="5"/>
            <rect x="97.5" y="127.5" width="5" height="5"/>
            <rect x="107.5" y="127.5" width="5" height="5"/>
            <rect x="117.5" y="127.5" width="5" height="5"/>
            <rect x="122.5" y="127.5" width="5" height="5"/>
            <rect x="132.5" y="127.5" width="5" height="5"/>
            <rect x="137.5" y="127.5" width="5" height="5"/>
            <rect x="17.5" y="132.5" width="5" height="5"/>
            <rect x="37.5" y="132.5" width="5" height="5"/>
            <rect x="42.5" y="132.5" width="5" height="5"/>
            <rect x="52.5" y="132.5" width="5" height="5"/>
            <rect x="62.5" y="132.5" width="5" height="5"/>
            <rect x="82.5" y="132.5" width="5" height="5"/>
            <rect x="97.5" y="132.5" width="5" height="5"/>
            <rect x="102.5" y="132.5" width="5" height="5"/>
            <rect x="107.5" y="132.5" width="5" height="5"/>
            <rect x="122.5" y="132.5" width="5" height="5"/>
            <rect x="127.5" y="132.5" width="5" height="5"/>
            <rect x="132.5" y="132.5" width="5" height="5"/>
            <rect x="162.5" y="132.5" width="5" height="5"/>
            <rect x="167.5" y="132.5" width="5" height="5"/>
            <rect x="172.5" y="132.5" width="5" height="5"/>
            <rect x="17.5" y="137.5" width="5" height="5"/>
            <rect x="32.5" y="137.5" width="5" height="5"/>
            <rect x="47.5" y="137.5" width="5" height="5"/>
            <rect x="52.5" y="137.5" width="5" height="5"/>
            <rect x="72.5" y="137.5" width="5" height="5"/>
            <rect x="77.5" y="137.5" width="5" height="5"/>
            <rect x="82.5" y="137.5" width="5" height="5"/>
            <rect x="87.5" y="137.5" width="5" height="5"/>
            <rect x="92.5" y="137.5" width="5" height="5"/>
            <rect x="97.5" y="137.5" width="5" height="5"/>
            <rect x="107.5" y="137.5" width="5" height="5"/>
            <rect x="117.5" y="137.5" width="5" height="5"/>
            <rect x="127.5" y="137.5" width="5" height="5"/>
            <rect x="132.5" y="137.5" width="5" height="5"/>
            <rect x="137.5" y="137.5" width="5" height="5"/>
            <rect x="142.5" y="137.5" width="5" height="5"/>
            <rect x="147.5" y="137.5" width="5" height="5"/>
            <rect x="152.5" y="137.5" width="5" height="5"/>
            <rect x="157.5" y="137.5" width="5" height="5"/>
            <rect x="177.5" y="137.5" width="5" height="5"/>
            <rect x="57.5" y="142.5" width="5" height="5"/>
            <rect x="62.5" y="142.5" width="5" height="5"/>
            <rect x="92.5" y="142.5" width="5" height="5"/>
            <rect x="107.5" y="142.5" width="5" height="5"/>
            <rect x="112.5" y="142.5" width="5" height="5"/>
            <rect x="122.5" y="142.5" width="5" height="5"/>
            <rect x="127.5" y="142.5" width="5" height="5"/>
            <rect x="137.5" y="142.5" width="5" height="5"/>
            <rect x="157.5" y="142.5" width="5" height="5"/>
            <rect x="167.5" y="142.5" width="5" height="5"/>
            <rect x="177.5" y="142.5" width="5" height="5"/>
            <rect x="17.5" y="147.5" width="5" height="5"/>
            <rect x="22.5" y="147.5" width="5" height="5"/>
            <rect x="27.5" y="147.5" width="5" height="5"/>
            <rect x="32.5" y="147.5" width="5" height="5"/>
            <rect x="37.5" y="147.5" width="5" height="5"/>
            <rect x="42.5" y="147.5" width="5" height="5"/>
            <rect x="47.5" y="147.5" width="5" height="5"/>
            <rect x="62.5" y="147.5" width="5" height="5"/>
            <rect x="67.5" y="147.5" width="5" height="5"/>
            <rect x="82.5" y="147.5" width="5" height="5"/>
            <rect x="102.5" y="147.5" width="5" height="5"/>
            <rect x="122.5" y="147.5" width="5" height="5"/>
            <rect x="132.5" y="147.5" width="5" height="5"/>
            <rect x="137.5" y="147.5" width="5" height="5"/>
            <rect x="147.5" y="147.5" width="5" height="5"/>
            <rect x="157.5" y="147.5" width="5" height="5"/>
            <rect x="167.5" y="147.5" width="5" height="5"/>
            <rect x="172.5" y="147.5" width="5" height="5"/>
            <rect x="17.5" y="152.5" width="5" height="5"/>
            <rect x="47.5" y="152.5" width="5" height="5"/>
            <rect x="62.5" y="152.5" width="5" height="5"/>
            <rect x="67.5" y="152.5" width="5" height="5"/>
            <rect x="87.5" y="152.5" width="5" height="5"/>
            <rect x="112.5" y="152.5" width="5" height="5"/>
            <rect x="122.5" y="152.5" width="5" height="5"/>
            <rect x="127.5" y="152.5" width="5" height="5"/>
            <rect x="132.5" y="152.5" width="5" height="5"/>
            <rect x="137.5" y="152.5" width="5" height="5"/>
            <rect x="157.5" y="152.5" width="5" height="5"/>
            <rect x="167.5" y="152.5" width="5" height="5"/>
            <rect x="17.5" y="157.5" width="5" height="5"/>
            <rect x="27.5" y="157.5" width="5" height="5"/>
            <rect x="32.5" y="157.5" width="5" height="5"/>
            <rect x="37.5" y="157.5" width="5" height="5"/>
            <rect x="47.5" y="157.5" width="5" height="5"/>
            <rect x="57.5" y="157.5" width="5" height="5"/>
            <rect x="67.5" y="157.5" width="5" height="5"/>
            <rect x="72.5" y="157.5" width="5" height="5"/>
            <rect x="87.5" y="157.5" width="5" height="5"/>
            <rect x="112.5" y="157.5" width="5" height="5"/>
            <rect x="122.5" y="157.5" width="5" height="5"/>
            <rect x="137.5" y="157.5" width="5" height="5"/>
            <rect x="142.5" y="157.5" width="5" height="5"/>
            <rect x="147.5" y="157.5" width="5" height="5"/>
            <rect x="152.5" y="157.5" width="5" height="5"/>
            <rect x="157.5" y="157.5" width="5" height="5"/>
            <rect x="172.5" y="157.5" width="5" height="5"/>
            <rect x="177.5" y="157.5" width="5" height="5"/>
            <rect x="17.5" y="162.5" width="5" height="5"/>
            <rect x="27.5" y="162.5" width="5" height="5"/>
            <rect x="32.5" y="162.5" width="5" height="5"/>
            <rect x="37.5" y="162.5" width="5" height="5"/>
            <rect x="47.5" y="162.5" width="5" height="5"/>
            <rect x="57.5" y="162.5" width="5" height="5"/>
            <rect x="67.5" y="162.5" width="5" height="5"/>
            <rect x="72.5" y="162.5" width="5" height="5"/>
            <rect x="82.5" y="162.5" width="5" height="5"/>
            <rect x="87.5" y="162.5" width="5" height="5"/>
            <rect x="97.5" y="162.5" width="5" height="5"/>
            <rect x="102.5" y="162.5" width="5" height="5"/>
            <rect x="107.5" y="162.5" width="5" height="5"/>
            <rect x="117.5" y="162.5" width="5" height="5"/>
            <rect x="127.5" y="162.5" width="5" height="5"/>
            <rect x="132.5" y="162.5" width="5" height="5"/>
            <rect x="157.5" y="162.5" width="5" height="5"/>
            <rect x="172.5" y="162.5" width="5" height="5"/>
            <rect x="17.5" y="167.5" width="5" height="5"/>
            <rect x="27.5" y="167.5" width="5" height="5"/>
            <rect x="32.5" y="167.5" width="5" height="5"/>
            <rect x="37.5" y="167.5" width="5" height="5"/>
            <rect x="47.5" y="167.5" width="5" height="5"/>
            <rect x="57.5" y="167.5" width="5" height="5"/>
            <rect x="87.5" y="167.5" width="5" height="5"/>
            <rect x="107.5" y="167.5" width="5" height="5"/>
            <rect x="127.5" y="167.5" width="5" height="5"/>
            <rect x="142.5" y="167.5" width="5" height="5"/>
            <rect x="147.5" y="167.5" width="5" height="5"/>
            <rect x="167.5" y="167.5" width="5" height="5"/>
            <rect x="17.5" y="172.5" width="5" height="5"/>
            <rect x="47.5" y="172.5" width="5" height="5"/>
            <rect x="62.5" y="172.5" width="5" height="5"/>
            <rect x="67.5" y="172.5" width="5" height="5"/>
            <rect x="87.5" y="172.5" width="5" height="5"/>
            <rect x="102.5" y="172.5" width="5" height="5"/>
            <rect x="107.5" y="172.5" width="5" height="5"/>
            <rect x="117.5" y="172.5" width="5" height="5"/>
            <rect x="122.5" y="172.5" width="5" height="5"/>
            <rect x="127.5" y="172.5" width="5" height="5"/>
            <rect x="142.5" y="172.5" width="5" height="5"/>
            <rect x="147.5" y="172.5" width="5" height="5"/>
            <rect x="152.5" y="172.5" width="5" height="5"/>
            <rect x="162.5" y="172.5" width="5" height="5"/>
            <rect x="167.5" y="172.5" width="5" height="5"/>
            <rect x="17.5" y="177.5" width="5" height="5"/>
            <rect x="22.5" y="177.5" width="5" height="5"/>
            <rect x="27.5" y="177.5" width="5" height="5"/>
            <rect x="32.5" y="177.5" width="5" height="5"/>
            <rect x="37.5" y="177.5" width="5" height="5"/>
            <rect x="42.5" y="177.5" width="5" height="5"/>
            <rect x="47.5" y="177.5" width="5" height="5"/>
            <rect x="62.5" y="177.5" width="5" height="5"/>
            <rect x="67.5" y="177.5" width="5" height="5"/>
            <rect x="72.5" y="177.5" width="5" height="5"/>
            <rect x="122.5" y="177.5" width="5" height="5"/>
            <rect x="127.5" y="177.5" width="5" height="5"/>
            <rect x="132.5" y="177.5" width="5" height="5"/>
            <rect x="137.5" y="177.5" width="5" height="5"/>
            <rect x="142.5" y="177.5" width="5" height="5"/>
            <rect x="162.5" y="177.5" width="5" height="5"/>
            <rect x="167.5" y="177.5" width="5" height="5"/>
            <rect x="172.5" y="177.5" width="5" height="5"/>
        </g>
        <path d="M119.416,97.256c0,-8.688 -8.71,-15.756 -19.416,-15.756c-10.705,0 -19.416,7.068 -19.416,15.756c0,7.787 6.907,14.313 16.238,15.546c0.632,0.135 1.492,0.417 1.71,0.958c0.197,0.49 0.129,1.257 0.063,1.755c0,0 -0.227,1.37 -0.277,1.662c-0.085,0.49 -0.39,1.92 1.681,1.046c2.074,-0.873 11.182,-6.585 15.254,-11.274c2.815,-3.083 4.163,-6.216 4.163,-9.693Z" style="fill:#fff;stroke:#fff;stroke-width:9px;"/>
        <path d="M119.416,97.256c0,-8.688 -8.71,-15.756 -19.416,-15.756c-10.705,0 -19.416,7.068 -19.416,15.756c0,7.787 6.907,14.313 16.238,15.546c0.632,0.135 1.492,0.417 1.71,0.958c0.197,0.49 0.129,1.257 0.063,1.755c0,0 -0.227,1.37 -0.277,1.662c-0.085,0.49 -0.39,1.92 1.681,1.046c2.074,-0.873 11.182,-6.585 15.254,-11.274c2.815,-3.083 4.163,-6.216 4.163,-9.693Zm-27.017,5.168l-3.857,0c-0.561,0 -1.017,-0.455 -1.017,-1.018l0,-7.716c0,-0.561 0.456,-1.019 1.017,-1.019c0.561,0 1.017,0.458 1.017,1.019l0,6.697l2.84,0c0.562,0 1.018,0.457 1.018,1.018c0,0.563 -0.456,1.019 -1.018,1.019Zm3.99,-1.018c0,0.563 -0.456,1.018 -1.017,1.018c-0.561,0 -1.018,-0.455 -1.018,-1.018l0,-7.716c0,-0.561 0.456,-1.019 1.018,-1.019c0.561,0 1.017,0.458 1.017,1.019l0,7.716Zm9.288,0c0,0.439 -0.279,0.828 -0.697,0.966c-0.103,0.035 -0.214,0.053 -0.322,0.053c-0.319,0 -0.622,-0.152 -0.813,-0.409l-3.955,-5.382l0,4.772c0,0.563 -0.456,1.019 -1.018,1.019c-0.561,0 -1.018,-0.456 -1.018,-1.019l0,-7.716c0,-0.439 0.28,-0.826 0.696,-0.966c0.105,-0.035 0.213,-0.053 0.323,-0.053c0.317,0 0.622,0.152 0.812,0.409l3.955,5.385l0,-4.775c0,-0.561 0.457,-1.019 1.018,-1.019c0.562,0 1.017,0.458 1.017,1.019l0,7.715l0.002,0l0,0.001Zm6.242,-4.875c0.563,0 1.019,0.456 1.019,1.019c0,0.56 -0.456,1.017 -1.019,1.017l-2.839,0l0,1.821l2.839,0c0.561,0 1.019,0.457 1.019,1.018c0,0.563 -0.458,1.019 -1.019,1.019l-3.857,0c-0.561,0 -1.018,-0.456 -1.018,-1.019l0,-3.854l0,-0.002l0,-0.003l0,-3.851l0,-0.005c0,-0.56 0.456,-1.018 1.018,-1.018l3.857,0c0.563,0 1.019,0.457 1.019,1.018c0,0.562 -0.456,1.019 -1.019,1.019l-2.839,0l0,1.822l2.839,0l0,-0.001Z" style="fill:#00b800;fill-rule:nonzero;"/>
    </g>
</svg>
